<?xml version="1.0" encoding="utf-8"?>
<svg xmlns="http://www.w3.org/2000/svg" xmlns:xlink="http://www.w3.org/1999/xlink" width="600" height="400" viewBox="0 0 2400 1600">
<defs>
  <clipPath id="clip640">
    <rect x="0" y="0" width="2400" height="1600"/>
  </clipPath>
</defs>
<path clip-path="url(#clip640)" d="M0 1600 L2400 1600 L2400 0 L0 0  Z" fill="#ffffff" fill-rule="evenodd" fill-opacity="1"/>
<defs>
  <clipPath id="clip641">
    <rect x="370" y="123" width="1984" height="1301"/>
  </clipPath>
</defs>
<path clip-path="url(#clip640)" d="M370.19 1423.18 L2352.76 1423.18 L2352.76 123.472 L370.19 123.472  Z" fill="#ffffff" fill-rule="evenodd" fill-opacity="1"/>
<polyline clip-path="url(#clip641)" style="stroke:#000000; stroke-linecap:round; stroke-linejoin:round; stroke-width:2; stroke-opacity:0.1; fill:none" points="426.3,1423.18 426.3,123.472 "/>
<polyline clip-path="url(#clip641)" style="stroke:#000000; stroke-linecap:round; stroke-linejoin:round; stroke-width:2; stroke-opacity:0.1; fill:none" points="800.369,1423.18 800.369,123.472 "/>
<polyline clip-path="url(#clip641)" style="stroke:#000000; stroke-linecap:round; stroke-linejoin:round; stroke-width:2; stroke-opacity:0.1; fill:none" points="1174.44,1423.18 1174.44,123.472 "/>
<polyline clip-path="url(#clip641)" style="stroke:#000000; stroke-linecap:round; stroke-linejoin:round; stroke-width:2; stroke-opacity:0.1; fill:none" points="1548.51,1423.18 1548.51,123.472 "/>
<polyline clip-path="url(#clip641)" style="stroke:#000000; stroke-linecap:round; stroke-linejoin:round; stroke-width:2; stroke-opacity:0.1; fill:none" points="1922.58,1423.18 1922.58,123.472 "/>
<polyline clip-path="url(#clip641)" style="stroke:#000000; stroke-linecap:round; stroke-linejoin:round; stroke-width:2; stroke-opacity:0.1; fill:none" points="2296.65,1423.18 2296.65,123.472 "/>
<polyline clip-path="url(#clip641)" style="stroke:#000000; stroke-linecap:round; stroke-linejoin:round; stroke-width:2; stroke-opacity:0.1; fill:none" points="370.19,1386.4 2352.76,1386.4 "/>
<polyline clip-path="url(#clip641)" style="stroke:#000000; stroke-linecap:round; stroke-linejoin:round; stroke-width:2; stroke-opacity:0.1; fill:none" points="370.19,1101.37 2352.76,1101.37 "/>
<polyline clip-path="url(#clip641)" style="stroke:#000000; stroke-linecap:round; stroke-linejoin:round; stroke-width:2; stroke-opacity:0.1; fill:none" points="370.19,816.349 2352.76,816.349 "/>
<polyline clip-path="url(#clip641)" style="stroke:#000000; stroke-linecap:round; stroke-linejoin:round; stroke-width:2; stroke-opacity:0.1; fill:none" points="370.19,531.325 2352.76,531.325 "/>
<polyline clip-path="url(#clip641)" style="stroke:#000000; stroke-linecap:round; stroke-linejoin:round; stroke-width:2; stroke-opacity:0.1; fill:none" points="370.19,246.302 2352.76,246.302 "/>
<polyline clip-path="url(#clip640)" style="stroke:#000000; stroke-linecap:round; stroke-linejoin:round; stroke-width:4; stroke-opacity:1; fill:none" points="370.19,1423.18 2352.76,1423.18 "/>
<polyline clip-path="url(#clip640)" style="stroke:#000000; stroke-linecap:round; stroke-linejoin:round; stroke-width:4; stroke-opacity:1; fill:none" points="426.3,1423.18 426.3,1404.28 "/>
<polyline clip-path="url(#clip640)" style="stroke:#000000; stroke-linecap:round; stroke-linejoin:round; stroke-width:4; stroke-opacity:1; fill:none" points="800.369,1423.18 800.369,1404.28 "/>
<polyline clip-path="url(#clip640)" style="stroke:#000000; stroke-linecap:round; stroke-linejoin:round; stroke-width:4; stroke-opacity:1; fill:none" points="1174.44,1423.18 1174.44,1404.28 "/>
<polyline clip-path="url(#clip640)" style="stroke:#000000; stroke-linecap:round; stroke-linejoin:round; stroke-width:4; stroke-opacity:1; fill:none" points="1548.51,1423.18 1548.51,1404.28 "/>
<polyline clip-path="url(#clip640)" style="stroke:#000000; stroke-linecap:round; stroke-linejoin:round; stroke-width:4; stroke-opacity:1; fill:none" points="1922.58,1423.18 1922.58,1404.28 "/>
<polyline clip-path="url(#clip640)" style="stroke:#000000; stroke-linecap:round; stroke-linejoin:round; stroke-width:4; stroke-opacity:1; fill:none" points="2296.65,1423.18 2296.65,1404.28 "/>
<path clip-path="url(#clip640)" d="M426.3 1454.1 Q422.689 1454.1 420.86 1457.66 Q419.055 1461.2 419.055 1468.33 Q419.055 1475.44 420.86 1479.01 Q422.689 1482.55 426.3 1482.55 Q429.934 1482.55 431.74 1479.01 Q433.568 1475.44 433.568 1468.33 Q433.568 1461.2 431.74 1457.66 Q429.934 1454.1 426.3 1454.1 M426.3 1450.39 Q432.11 1450.39 435.166 1455 Q438.244 1459.58 438.244 1468.33 Q438.244 1477.06 435.166 1481.67 Q432.11 1486.25 426.3 1486.25 Q420.49 1486.25 417.411 1481.67 Q414.356 1477.06 414.356 1468.33 Q414.356 1459.58 417.411 1455 Q420.49 1450.39 426.3 1450.39 Z" fill="#000000" fill-rule="nonzero" fill-opacity="1" /><path clip-path="url(#clip640)" d="M790.751 1481.64 L798.39 1481.64 L798.39 1455.28 L790.08 1456.95 L790.08 1452.69 L798.344 1451.02 L803.019 1451.02 L803.019 1481.64 L810.658 1481.64 L810.658 1485.58 L790.751 1485.58 L790.751 1481.64 Z" fill="#000000" fill-rule="nonzero" fill-opacity="1" /><path clip-path="url(#clip640)" d="M1169.09 1481.64 L1185.41 1481.64 L1185.41 1485.58 L1163.47 1485.58 L1163.47 1481.64 Q1166.13 1478.89 1170.71 1474.26 Q1175.32 1469.61 1176.5 1468.27 Q1178.74 1465.74 1179.62 1464.01 Q1180.53 1462.25 1180.53 1460.56 Q1180.53 1457.8 1178.58 1456.07 Q1176.66 1454.33 1173.56 1454.33 Q1171.36 1454.33 1168.91 1455.09 Q1166.48 1455.86 1163.7 1457.41 L1163.7 1452.69 Q1166.52 1451.55 1168.98 1450.97 Q1171.43 1450.39 1173.47 1450.39 Q1178.84 1450.39 1182.03 1453.08 Q1185.23 1455.77 1185.23 1460.26 Q1185.23 1462.39 1184.41 1464.31 Q1183.63 1466.2 1181.52 1468.8 Q1180.94 1469.47 1177.84 1472.69 Q1174.74 1475.88 1169.09 1481.64 Z" fill="#000000" fill-rule="nonzero" fill-opacity="1" /><path clip-path="url(#clip640)" d="M1552.75 1466.95 Q1556.11 1467.66 1557.99 1469.93 Q1559.88 1472.2 1559.88 1475.53 Q1559.88 1480.65 1556.37 1483.45 Q1552.85 1486.25 1546.37 1486.25 Q1544.19 1486.25 1541.88 1485.81 Q1539.58 1485.39 1537.13 1484.54 L1537.13 1480.02 Q1539.07 1481.16 1541.39 1481.74 Q1543.7 1482.32 1546.23 1482.32 Q1550.63 1482.32 1552.92 1480.58 Q1555.23 1478.84 1555.23 1475.53 Q1555.23 1472.48 1553.08 1470.77 Q1550.95 1469.03 1547.13 1469.03 L1543.1 1469.03 L1543.1 1465.19 L1547.32 1465.19 Q1550.76 1465.19 1552.59 1463.82 Q1554.42 1462.43 1554.42 1459.84 Q1554.42 1457.18 1552.52 1455.77 Q1550.65 1454.33 1547.13 1454.33 Q1545.21 1454.33 1543.01 1454.75 Q1540.81 1455.16 1538.17 1456.04 L1538.17 1451.88 Q1540.83 1451.14 1543.15 1450.77 Q1545.49 1450.39 1547.55 1450.39 Q1552.87 1450.39 1555.97 1452.83 Q1559.07 1455.23 1559.07 1459.35 Q1559.07 1462.22 1557.43 1464.21 Q1555.79 1466.18 1552.75 1466.95 Z" fill="#000000" fill-rule="nonzero" fill-opacity="1" /><path clip-path="url(#clip640)" d="M1925.59 1455.09 L1913.78 1473.54 L1925.59 1473.54 L1925.59 1455.09 M1924.36 1451.02 L1930.24 1451.02 L1930.24 1473.54 L1935.17 1473.54 L1935.17 1477.43 L1930.24 1477.43 L1930.24 1485.58 L1925.59 1485.58 L1925.59 1477.43 L1909.98 1477.43 L1909.98 1472.92 L1924.36 1451.02 Z" fill="#000000" fill-rule="nonzero" fill-opacity="1" /><path clip-path="url(#clip640)" d="M2286.92 1451.02 L2305.28 1451.02 L2305.28 1454.96 L2291.21 1454.96 L2291.21 1463.43 Q2292.22 1463.08 2293.24 1462.92 Q2294.26 1462.73 2295.28 1462.73 Q2301.07 1462.73 2304.45 1465.9 Q2307.83 1469.08 2307.83 1474.49 Q2307.83 1480.07 2304.35 1483.17 Q2300.88 1486.25 2294.56 1486.25 Q2292.39 1486.25 2290.12 1485.88 Q2287.87 1485.51 2285.47 1484.77 L2285.47 1480.07 Q2287.55 1481.2 2289.77 1481.76 Q2291.99 1482.32 2294.47 1482.32 Q2298.47 1482.32 2300.81 1480.21 Q2303.15 1478.1 2303.15 1474.49 Q2303.15 1470.88 2300.81 1468.77 Q2298.47 1466.67 2294.47 1466.67 Q2292.59 1466.67 2290.72 1467.08 Q2288.87 1467.5 2286.92 1468.38 L2286.92 1451.02 Z" fill="#000000" fill-rule="nonzero" fill-opacity="1" /><path clip-path="url(#clip640)" d="M1231.64 1520.52 L1271.84 1520.52 L1271.84 1525.93 L1254.97 1525.93 L1254.97 1568.04 L1248.51 1568.04 L1248.51 1525.93 L1231.64 1525.93 L1231.64 1520.52 Z" fill="#000000" fill-rule="nonzero" fill-opacity="1" /><path clip-path="url(#clip640)" d="M1275.79 1532.4 L1281.65 1532.4 L1281.65 1568.04 L1275.79 1568.04 L1275.79 1532.4 M1275.79 1518.52 L1281.65 1518.52 L1281.65 1525.93 L1275.79 1525.93 L1275.79 1518.52 Z" fill="#000000" fill-rule="nonzero" fill-opacity="1" /><path clip-path="url(#clip640)" d="M1321.66 1539.24 Q1323.85 1535.29 1326.91 1533.41 Q1329.96 1531.54 1334.1 1531.54 Q1339.67 1531.54 1342.69 1535.45 Q1345.72 1539.33 1345.72 1546.53 L1345.72 1568.04 L1339.83 1568.04 L1339.83 1546.72 Q1339.83 1541.59 1338.02 1539.11 Q1336.2 1536.63 1332.48 1536.63 Q1327.93 1536.63 1325.28 1539.65 Q1322.64 1542.68 1322.64 1547.9 L1322.64 1568.04 L1316.75 1568.04 L1316.75 1546.72 Q1316.75 1541.56 1314.94 1539.11 Q1313.13 1536.63 1309.34 1536.63 Q1304.85 1536.63 1302.21 1539.68 Q1299.57 1542.71 1299.57 1547.9 L1299.57 1568.04 L1293.68 1568.04 L1293.68 1532.4 L1299.57 1532.4 L1299.57 1537.93 Q1301.57 1534.66 1304.37 1533.1 Q1307.17 1531.54 1311.02 1531.54 Q1314.91 1531.54 1317.61 1533.51 Q1320.35 1535.48 1321.66 1539.24 Z" fill="#000000" fill-rule="nonzero" fill-opacity="1" /><path clip-path="url(#clip640)" d="M1387.89 1548.76 L1387.89 1551.62 L1360.96 1551.62 Q1361.35 1557.67 1364.59 1560.85 Q1367.87 1564 1373.69 1564 Q1377.07 1564 1380.22 1563.17 Q1383.4 1562.35 1386.52 1560.69 L1386.52 1566.23 Q1383.37 1567.57 1380.06 1568.27 Q1376.75 1568.97 1373.34 1568.97 Q1364.81 1568.97 1359.82 1564 Q1354.85 1559.04 1354.85 1550.57 Q1354.85 1541.82 1359.56 1536.69 Q1364.31 1531.54 1372.33 1531.54 Q1379.52 1531.54 1383.69 1536.18 Q1387.89 1540.8 1387.89 1548.76 M1382.03 1547.04 Q1381.97 1542.23 1379.33 1539.37 Q1376.72 1536.5 1372.39 1536.5 Q1367.49 1536.5 1364.53 1539.27 Q1361.6 1542.04 1361.15 1547.07 L1382.03 1547.04 Z" fill="#000000" fill-rule="nonzero" fill-opacity="1" /><path clip-path="url(#clip640)" d="M1432.29 1518.58 Q1428.03 1525.9 1425.96 1533.06 Q1423.89 1540.23 1423.89 1547.58 Q1423.89 1554.93 1425.96 1562.16 Q1428.06 1569.35 1432.29 1576.64 L1427.2 1576.64 Q1422.42 1569.16 1420.04 1561.93 Q1417.68 1554.71 1417.68 1547.58 Q1417.68 1540.48 1420.04 1533.29 Q1422.39 1526.09 1427.2 1518.58 L1432.29 1518.58 Z" fill="#000000" fill-rule="nonzero" fill-opacity="1" /><path clip-path="url(#clip640)" d="M1466.38 1533.45 L1466.38 1538.98 Q1463.9 1537.71 1461.22 1537.07 Q1458.55 1536.44 1455.69 1536.44 Q1451.32 1536.44 1449.13 1537.77 Q1446.96 1539.11 1446.96 1541.79 Q1446.96 1543.82 1448.52 1545 Q1450.08 1546.15 1454.79 1547.2 L1456.8 1547.64 Q1463.04 1548.98 1465.65 1551.43 Q1468.29 1553.85 1468.29 1558.21 Q1468.29 1563.17 1464.34 1566.07 Q1460.43 1568.97 1453.55 1568.97 Q1450.69 1568.97 1447.57 1568.39 Q1444.48 1567.85 1441.04 1566.74 L1441.04 1560.69 Q1444.29 1562.38 1447.44 1563.24 Q1450.59 1564.07 1453.68 1564.07 Q1457.82 1564.07 1460.05 1562.66 Q1462.27 1561.23 1462.27 1558.65 Q1462.27 1556.27 1460.65 1554.99 Q1459.06 1553.72 1453.62 1552.54 L1451.58 1552.07 Q1446.14 1550.92 1443.72 1548.56 Q1441.3 1546.18 1441.3 1542.04 Q1441.3 1537.01 1444.86 1534.27 Q1448.43 1531.54 1454.98 1531.54 Q1458.23 1531.54 1461.1 1532.01 Q1463.96 1532.49 1466.38 1533.45 Z" fill="#000000" fill-rule="nonzero" fill-opacity="1" /><path clip-path="url(#clip640)" d="M1476.69 1518.58 L1481.78 1518.58 Q1486.56 1526.09 1488.91 1533.29 Q1491.3 1540.48 1491.3 1547.58 Q1491.3 1554.71 1488.91 1561.93 Q1486.56 1569.16 1481.78 1576.64 L1476.69 1576.64 Q1480.93 1569.35 1482.99 1562.16 Q1485.09 1554.93 1485.09 1547.58 Q1485.09 1540.23 1482.99 1533.06 Q1480.93 1525.9 1476.69 1518.58 Z" fill="#000000" fill-rule="nonzero" fill-opacity="1" /><polyline clip-path="url(#clip640)" style="stroke:#000000; stroke-linecap:round; stroke-linejoin:round; stroke-width:4; stroke-opacity:1; fill:none" points="370.19,1423.18 370.19,123.472 "/>
<polyline clip-path="url(#clip640)" style="stroke:#000000; stroke-linecap:round; stroke-linejoin:round; stroke-width:4; stroke-opacity:1; fill:none" points="370.19,1386.4 389.087,1386.4 "/>
<polyline clip-path="url(#clip640)" style="stroke:#000000; stroke-linecap:round; stroke-linejoin:round; stroke-width:4; stroke-opacity:1; fill:none" points="370.19,1101.37 389.087,1101.37 "/>
<polyline clip-path="url(#clip640)" style="stroke:#000000; stroke-linecap:round; stroke-linejoin:round; stroke-width:4; stroke-opacity:1; fill:none" points="370.19,816.349 389.087,816.349 "/>
<polyline clip-path="url(#clip640)" style="stroke:#000000; stroke-linecap:round; stroke-linejoin:round; stroke-width:4; stroke-opacity:1; fill:none" points="370.19,531.325 389.087,531.325 "/>
<polyline clip-path="url(#clip640)" style="stroke:#000000; stroke-linecap:round; stroke-linejoin:round; stroke-width:4; stroke-opacity:1; fill:none" points="370.19,246.302 389.087,246.302 "/>
<path clip-path="url(#clip640)" d="M126.205 1372.19 Q122.593 1372.19 120.765 1375.76 Q118.959 1379.3 118.959 1386.43 Q118.959 1393.54 120.765 1397.1 Q122.593 1400.64 126.205 1400.64 Q129.839 1400.64 131.644 1397.1 Q133.473 1393.54 133.473 1386.43 Q133.473 1379.3 131.644 1375.76 Q129.839 1372.19 126.205 1372.19 M126.205 1368.49 Q132.015 1368.49 135.07 1373.1 Q138.149 1377.68 138.149 1386.43 Q138.149 1395.16 135.07 1399.76 Q132.015 1404.35 126.205 1404.35 Q120.394 1404.35 117.316 1399.76 Q114.26 1395.16 114.26 1386.43 Q114.26 1377.68 117.316 1373.1 Q120.394 1368.49 126.205 1368.49 Z" fill="#000000" fill-rule="nonzero" fill-opacity="1" /><path clip-path="url(#clip640)" d="M146.366 1397.8 L151.251 1397.8 L151.251 1403.68 L146.366 1403.68 L146.366 1397.8 Z" fill="#000000" fill-rule="nonzero" fill-opacity="1" /><path clip-path="url(#clip640)" d="M171.436 1372.19 Q167.825 1372.19 165.996 1375.76 Q164.19 1379.3 164.19 1386.43 Q164.19 1393.54 165.996 1397.1 Q167.825 1400.64 171.436 1400.64 Q175.07 1400.64 176.876 1397.1 Q178.704 1393.54 178.704 1386.43 Q178.704 1379.3 176.876 1375.76 Q175.07 1372.19 171.436 1372.19 M171.436 1368.49 Q177.246 1368.49 180.301 1373.1 Q183.38 1377.68 183.38 1386.43 Q183.38 1395.16 180.301 1399.76 Q177.246 1404.35 171.436 1404.35 Q165.626 1404.35 162.547 1399.76 Q159.491 1395.16 159.491 1386.43 Q159.491 1377.68 162.547 1373.1 Q165.626 1368.49 171.436 1368.49 Z" fill="#000000" fill-rule="nonzero" fill-opacity="1" /><path clip-path="url(#clip640)" d="M201.598 1372.19 Q197.987 1372.19 196.158 1375.76 Q194.352 1379.3 194.352 1386.43 Q194.352 1393.54 196.158 1397.1 Q197.987 1400.64 201.598 1400.64 Q205.232 1400.64 207.037 1397.1 Q208.866 1393.54 208.866 1386.43 Q208.866 1379.3 207.037 1375.76 Q205.232 1372.19 201.598 1372.19 M201.598 1368.49 Q207.408 1368.49 210.463 1373.1 Q213.542 1377.68 213.542 1386.43 Q213.542 1395.16 210.463 1399.76 Q207.408 1404.35 201.598 1404.35 Q195.787 1404.35 192.709 1399.76 Q189.653 1395.16 189.653 1386.43 Q189.653 1377.68 192.709 1373.1 Q195.787 1368.49 201.598 1368.49 Z" fill="#000000" fill-rule="nonzero" fill-opacity="1" /><path clip-path="url(#clip640)" d="M231.76 1372.19 Q228.148 1372.19 226.32 1375.76 Q224.514 1379.3 224.514 1386.43 Q224.514 1393.54 226.32 1397.1 Q228.148 1400.64 231.76 1400.64 Q235.394 1400.64 237.199 1397.1 Q239.028 1393.54 239.028 1386.43 Q239.028 1379.3 237.199 1375.76 Q235.394 1372.19 231.76 1372.19 M231.76 1368.49 Q237.57 1368.49 240.625 1373.1 Q243.704 1377.68 243.704 1386.43 Q243.704 1395.16 240.625 1399.76 Q237.57 1404.35 231.76 1404.35 Q225.949 1404.35 222.871 1399.76 Q219.815 1395.16 219.815 1386.43 Q219.815 1377.68 222.871 1373.1 Q225.949 1368.49 231.76 1368.49 Z" fill="#000000" fill-rule="nonzero" fill-opacity="1" /><path clip-path="url(#clip640)" d="M261.921 1372.19 Q258.31 1372.19 256.482 1375.76 Q254.676 1379.3 254.676 1386.43 Q254.676 1393.54 256.482 1397.1 Q258.31 1400.64 261.921 1400.64 Q265.556 1400.64 267.361 1397.1 Q269.19 1393.54 269.19 1386.43 Q269.19 1379.3 267.361 1375.76 Q265.556 1372.19 261.921 1372.19 M261.921 1368.49 Q267.732 1368.49 270.787 1373.1 Q273.866 1377.68 273.866 1386.43 Q273.866 1395.16 270.787 1399.76 Q267.732 1404.35 261.921 1404.35 Q256.111 1404.35 253.033 1399.76 Q249.977 1395.16 249.977 1386.43 Q249.977 1377.68 253.033 1373.1 Q256.111 1368.49 261.921 1368.49 Z" fill="#000000" fill-rule="nonzero" fill-opacity="1" /><path clip-path="url(#clip640)" d="M292.083 1372.19 Q288.472 1372.19 286.643 1375.76 Q284.838 1379.3 284.838 1386.43 Q284.838 1393.54 286.643 1397.1 Q288.472 1400.64 292.083 1400.64 Q295.718 1400.64 297.523 1397.1 Q299.352 1393.54 299.352 1386.43 Q299.352 1379.3 297.523 1375.76 Q295.718 1372.19 292.083 1372.19 M292.083 1368.49 Q297.893 1368.49 300.949 1373.1 Q304.028 1377.68 304.028 1386.43 Q304.028 1395.16 300.949 1399.76 Q297.893 1404.35 292.083 1404.35 Q286.273 1404.35 283.194 1399.76 Q280.139 1395.16 280.139 1386.43 Q280.139 1377.68 283.194 1373.1 Q286.273 1368.49 292.083 1368.49 Z" fill="#000000" fill-rule="nonzero" fill-opacity="1" /><path clip-path="url(#clip640)" d="M322.245 1372.19 Q318.634 1372.19 316.805 1375.76 Q315 1379.3 315 1386.43 Q315 1393.54 316.805 1397.1 Q318.634 1400.64 322.245 1400.64 Q325.879 1400.64 327.685 1397.1 Q329.514 1393.54 329.514 1386.43 Q329.514 1379.3 327.685 1375.76 Q325.879 1372.19 322.245 1372.19 M322.245 1368.49 Q328.055 1368.49 331.111 1373.1 Q334.19 1377.68 334.19 1386.43 Q334.19 1395.16 331.111 1399.76 Q328.055 1404.35 322.245 1404.35 Q316.435 1404.35 313.356 1399.76 Q310.301 1395.16 310.301 1386.43 Q310.301 1377.68 313.356 1373.1 Q316.435 1368.49 322.245 1368.49 Z" fill="#000000" fill-rule="nonzero" fill-opacity="1" /><path clip-path="url(#clip640)" d="M127.2 1087.17 Q123.589 1087.17 121.76 1090.74 Q119.955 1094.28 119.955 1101.41 Q119.955 1108.51 121.76 1112.08 Q123.589 1115.62 127.2 1115.62 Q130.834 1115.62 132.64 1112.08 Q134.468 1108.51 134.468 1101.41 Q134.468 1094.28 132.64 1090.74 Q130.834 1087.17 127.2 1087.17 M127.2 1083.47 Q133.01 1083.47 136.066 1088.07 Q139.144 1092.66 139.144 1101.41 Q139.144 1110.13 136.066 1114.74 Q133.01 1119.32 127.2 1119.32 Q121.39 1119.32 118.311 1114.74 Q115.256 1110.13 115.256 1101.41 Q115.256 1092.66 118.311 1088.07 Q121.39 1083.47 127.2 1083.47 Z" fill="#000000" fill-rule="nonzero" fill-opacity="1" /><path clip-path="url(#clip640)" d="M147.362 1112.77 L152.246 1112.77 L152.246 1118.65 L147.362 1118.65 L147.362 1112.77 Z" fill="#000000" fill-rule="nonzero" fill-opacity="1" /><path clip-path="url(#clip640)" d="M172.431 1087.17 Q168.82 1087.17 166.991 1090.74 Q165.186 1094.28 165.186 1101.41 Q165.186 1108.51 166.991 1112.08 Q168.82 1115.62 172.431 1115.62 Q176.065 1115.62 177.871 1112.08 Q179.7 1108.51 179.7 1101.41 Q179.7 1094.28 177.871 1090.74 Q176.065 1087.17 172.431 1087.17 M172.431 1083.47 Q178.241 1083.47 181.297 1088.07 Q184.376 1092.66 184.376 1101.41 Q184.376 1110.13 181.297 1114.74 Q178.241 1119.32 172.431 1119.32 Q166.621 1119.32 163.542 1114.74 Q160.487 1110.13 160.487 1101.41 Q160.487 1092.66 163.542 1088.07 Q166.621 1083.47 172.431 1083.47 Z" fill="#000000" fill-rule="nonzero" fill-opacity="1" /><path clip-path="url(#clip640)" d="M202.593 1087.17 Q198.982 1087.17 197.153 1090.74 Q195.348 1094.28 195.348 1101.41 Q195.348 1108.51 197.153 1112.08 Q198.982 1115.62 202.593 1115.62 Q206.227 1115.62 208.033 1112.08 Q209.861 1108.51 209.861 1101.41 Q209.861 1094.28 208.033 1090.74 Q206.227 1087.17 202.593 1087.17 M202.593 1083.47 Q208.403 1083.47 211.459 1088.07 Q214.537 1092.66 214.537 1101.41 Q214.537 1110.13 211.459 1114.74 Q208.403 1119.32 202.593 1119.32 Q196.783 1119.32 193.704 1114.74 Q190.649 1110.13 190.649 1101.41 Q190.649 1092.66 193.704 1088.07 Q196.783 1083.47 202.593 1083.47 Z" fill="#000000" fill-rule="nonzero" fill-opacity="1" /><path clip-path="url(#clip640)" d="M232.755 1087.17 Q229.144 1087.17 227.315 1090.74 Q225.51 1094.28 225.51 1101.41 Q225.51 1108.51 227.315 1112.08 Q229.144 1115.62 232.755 1115.62 Q236.389 1115.62 238.195 1112.08 Q240.023 1108.51 240.023 1101.41 Q240.023 1094.28 238.195 1090.74 Q236.389 1087.17 232.755 1087.17 M232.755 1083.47 Q238.565 1083.47 241.621 1088.07 Q244.699 1092.66 244.699 1101.41 Q244.699 1110.13 241.621 1114.74 Q238.565 1119.32 232.755 1119.32 Q226.945 1119.32 223.866 1114.74 Q220.811 1110.13 220.811 1101.41 Q220.811 1092.66 223.866 1088.07 Q226.945 1083.47 232.755 1083.47 Z" fill="#000000" fill-rule="nonzero" fill-opacity="1" /><path clip-path="url(#clip640)" d="M262.917 1087.17 Q259.306 1087.17 257.477 1090.74 Q255.671 1094.28 255.671 1101.41 Q255.671 1108.51 257.477 1112.08 Q259.306 1115.62 262.917 1115.62 Q266.551 1115.62 268.357 1112.08 Q270.185 1108.51 270.185 1101.41 Q270.185 1094.28 268.357 1090.74 Q266.551 1087.17 262.917 1087.17 M262.917 1083.47 Q268.727 1083.47 271.782 1088.07 Q274.861 1092.66 274.861 1101.41 Q274.861 1110.13 271.782 1114.74 Q268.727 1119.32 262.917 1119.32 Q257.107 1119.32 254.028 1114.74 Q250.972 1110.13 250.972 1101.41 Q250.972 1092.66 254.028 1088.07 Q257.107 1083.47 262.917 1083.47 Z" fill="#000000" fill-rule="nonzero" fill-opacity="1" /><path clip-path="url(#clip640)" d="M287.106 1114.72 L303.426 1114.72 L303.426 1118.65 L281.481 1118.65 L281.481 1114.72 Q284.144 1111.96 288.727 1107.33 Q293.333 1102.68 294.514 1101.34 Q296.759 1098.81 297.639 1097.08 Q298.542 1095.32 298.542 1093.63 Q298.542 1090.87 296.597 1089.14 Q294.676 1087.4 291.574 1087.4 Q289.375 1087.4 286.921 1088.17 Q284.491 1088.93 281.713 1090.48 L281.713 1085.76 Q284.537 1084.62 286.991 1084.05 Q289.444 1083.47 291.481 1083.47 Q296.852 1083.47 300.046 1086.15 Q303.241 1088.84 303.241 1093.33 Q303.241 1095.46 302.43 1097.38 Q301.643 1099.28 299.537 1101.87 Q298.958 1102.54 295.856 1105.76 Q292.755 1108.95 287.106 1114.72 Z" fill="#000000" fill-rule="nonzero" fill-opacity="1" /><path clip-path="url(#clip640)" d="M313.287 1084.09 L331.643 1084.09 L331.643 1088.03 L317.569 1088.03 L317.569 1096.5 Q318.588 1096.15 319.606 1095.99 Q320.625 1095.81 321.643 1095.81 Q327.43 1095.81 330.81 1098.98 Q334.19 1102.15 334.19 1107.56 Q334.19 1113.14 330.717 1116.24 Q327.245 1119.32 320.926 1119.32 Q318.75 1119.32 316.481 1118.95 Q314.236 1118.58 311.829 1117.84 L311.829 1113.14 Q313.912 1114.28 316.134 1114.83 Q318.356 1115.39 320.833 1115.39 Q324.838 1115.39 327.176 1113.28 Q329.514 1111.18 329.514 1107.56 Q329.514 1103.95 327.176 1101.85 Q324.838 1099.74 320.833 1099.74 Q318.958 1099.74 317.083 1100.16 Q315.231 1100.57 313.287 1101.45 L313.287 1084.09 Z" fill="#000000" fill-rule="nonzero" fill-opacity="1" /><path clip-path="url(#clip640)" d="M126.205 802.147 Q122.593 802.147 120.765 805.712 Q118.959 809.254 118.959 816.383 Q118.959 823.49 120.765 827.055 Q122.593 830.596 126.205 830.596 Q129.839 830.596 131.644 827.055 Q133.473 823.49 133.473 816.383 Q133.473 809.254 131.644 805.712 Q129.839 802.147 126.205 802.147 M126.205 798.444 Q132.015 798.444 135.07 803.05 Q138.149 807.633 138.149 816.383 Q138.149 825.11 135.07 829.717 Q132.015 834.3 126.205 834.3 Q120.394 834.3 117.316 829.717 Q114.26 825.11 114.26 816.383 Q114.26 807.633 117.316 803.05 Q120.394 798.444 126.205 798.444 Z" fill="#000000" fill-rule="nonzero" fill-opacity="1" /><path clip-path="url(#clip640)" d="M146.366 827.749 L151.251 827.749 L151.251 833.629 L146.366 833.629 L146.366 827.749 Z" fill="#000000" fill-rule="nonzero" fill-opacity="1" /><path clip-path="url(#clip640)" d="M171.436 802.147 Q167.825 802.147 165.996 805.712 Q164.19 809.254 164.19 816.383 Q164.19 823.49 165.996 827.055 Q167.825 830.596 171.436 830.596 Q175.07 830.596 176.876 827.055 Q178.704 823.49 178.704 816.383 Q178.704 809.254 176.876 805.712 Q175.07 802.147 171.436 802.147 M171.436 798.444 Q177.246 798.444 180.301 803.05 Q183.38 807.633 183.38 816.383 Q183.38 825.11 180.301 829.717 Q177.246 834.3 171.436 834.3 Q165.626 834.3 162.547 829.717 Q159.491 825.11 159.491 816.383 Q159.491 807.633 162.547 803.05 Q165.626 798.444 171.436 798.444 Z" fill="#000000" fill-rule="nonzero" fill-opacity="1" /><path clip-path="url(#clip640)" d="M201.598 802.147 Q197.987 802.147 196.158 805.712 Q194.352 809.254 194.352 816.383 Q194.352 823.49 196.158 827.055 Q197.987 830.596 201.598 830.596 Q205.232 830.596 207.037 827.055 Q208.866 823.49 208.866 816.383 Q208.866 809.254 207.037 805.712 Q205.232 802.147 201.598 802.147 M201.598 798.444 Q207.408 798.444 210.463 803.05 Q213.542 807.633 213.542 816.383 Q213.542 825.11 210.463 829.717 Q207.408 834.3 201.598 834.3 Q195.787 834.3 192.709 829.717 Q189.653 825.11 189.653 816.383 Q189.653 807.633 192.709 803.05 Q195.787 798.444 201.598 798.444 Z" fill="#000000" fill-rule="nonzero" fill-opacity="1" /><path clip-path="url(#clip640)" d="M231.76 802.147 Q228.148 802.147 226.32 805.712 Q224.514 809.254 224.514 816.383 Q224.514 823.49 226.32 827.055 Q228.148 830.596 231.76 830.596 Q235.394 830.596 237.199 827.055 Q239.028 823.49 239.028 816.383 Q239.028 809.254 237.199 805.712 Q235.394 802.147 231.76 802.147 M231.76 798.444 Q237.57 798.444 240.625 803.05 Q243.704 807.633 243.704 816.383 Q243.704 825.11 240.625 829.717 Q237.57 834.3 231.76 834.3 Q225.949 834.3 222.871 829.717 Q219.815 825.11 219.815 816.383 Q219.815 807.633 222.871 803.05 Q225.949 798.444 231.76 798.444 Z" fill="#000000" fill-rule="nonzero" fill-opacity="1" /><path clip-path="url(#clip640)" d="M261.921 802.147 Q258.31 802.147 256.482 805.712 Q254.676 809.254 254.676 816.383 Q254.676 823.49 256.482 827.055 Q258.31 830.596 261.921 830.596 Q265.556 830.596 267.361 827.055 Q269.19 823.49 269.19 816.383 Q269.19 809.254 267.361 805.712 Q265.556 802.147 261.921 802.147 M261.921 798.444 Q267.732 798.444 270.787 803.05 Q273.866 807.633 273.866 816.383 Q273.866 825.11 270.787 829.717 Q267.732 834.3 261.921 834.3 Q256.111 834.3 253.033 829.717 Q249.977 825.11 249.977 816.383 Q249.977 807.633 253.033 803.05 Q256.111 798.444 261.921 798.444 Z" fill="#000000" fill-rule="nonzero" fill-opacity="1" /><path clip-path="url(#clip640)" d="M282.13 799.069 L300.486 799.069 L300.486 803.004 L286.412 803.004 L286.412 811.476 Q287.431 811.129 288.449 810.967 Q289.468 810.782 290.486 810.782 Q296.273 810.782 299.653 813.953 Q303.032 817.124 303.032 822.541 Q303.032 828.119 299.56 831.221 Q296.088 834.3 289.768 834.3 Q287.593 834.3 285.324 833.93 Q283.079 833.559 280.671 832.818 L280.671 828.119 Q282.755 829.254 284.977 829.809 Q287.199 830.365 289.676 830.365 Q293.68 830.365 296.018 828.258 Q298.356 826.152 298.356 822.541 Q298.356 818.93 296.018 816.823 Q293.68 814.717 289.676 814.717 Q287.801 814.717 285.926 815.133 Q284.074 815.55 282.13 816.43 L282.13 799.069 Z" fill="#000000" fill-rule="nonzero" fill-opacity="1" /><path clip-path="url(#clip640)" d="M322.245 802.147 Q318.634 802.147 316.805 805.712 Q315 809.254 315 816.383 Q315 823.49 316.805 827.055 Q318.634 830.596 322.245 830.596 Q325.879 830.596 327.685 827.055 Q329.514 823.49 329.514 816.383 Q329.514 809.254 327.685 805.712 Q325.879 802.147 322.245 802.147 M322.245 798.444 Q328.055 798.444 331.111 803.05 Q334.19 807.633 334.19 816.383 Q334.19 825.11 331.111 829.717 Q328.055 834.3 322.245 834.3 Q316.435 834.3 313.356 829.717 Q310.301 825.11 310.301 816.383 Q310.301 807.633 313.356 803.05 Q316.435 798.444 322.245 798.444 Z" fill="#000000" fill-rule="nonzero" fill-opacity="1" /><path clip-path="url(#clip640)" d="M127.2 517.124 Q123.589 517.124 121.76 520.689 Q119.955 524.23 119.955 531.36 Q119.955 538.466 121.76 542.031 Q123.589 545.573 127.2 545.573 Q130.834 545.573 132.64 542.031 Q134.468 538.466 134.468 531.36 Q134.468 524.23 132.64 520.689 Q130.834 517.124 127.2 517.124 M127.2 513.42 Q133.01 513.42 136.066 518.027 Q139.144 522.61 139.144 531.36 Q139.144 540.087 136.066 544.693 Q133.01 549.276 127.2 549.276 Q121.39 549.276 118.311 544.693 Q115.256 540.087 115.256 531.36 Q115.256 522.61 118.311 518.027 Q121.39 513.42 127.2 513.42 Z" fill="#000000" fill-rule="nonzero" fill-opacity="1" /><path clip-path="url(#clip640)" d="M147.362 542.726 L152.246 542.726 L152.246 548.605 L147.362 548.605 L147.362 542.726 Z" fill="#000000" fill-rule="nonzero" fill-opacity="1" /><path clip-path="url(#clip640)" d="M172.431 517.124 Q168.82 517.124 166.991 520.689 Q165.186 524.23 165.186 531.36 Q165.186 538.466 166.991 542.031 Q168.82 545.573 172.431 545.573 Q176.065 545.573 177.871 542.031 Q179.7 538.466 179.7 531.36 Q179.7 524.23 177.871 520.689 Q176.065 517.124 172.431 517.124 M172.431 513.42 Q178.241 513.42 181.297 518.027 Q184.376 522.61 184.376 531.36 Q184.376 540.087 181.297 544.693 Q178.241 549.276 172.431 549.276 Q166.621 549.276 163.542 544.693 Q160.487 540.087 160.487 531.36 Q160.487 522.61 163.542 518.027 Q166.621 513.42 172.431 513.42 Z" fill="#000000" fill-rule="nonzero" fill-opacity="1" /><path clip-path="url(#clip640)" d="M202.593 517.124 Q198.982 517.124 197.153 520.689 Q195.348 524.23 195.348 531.36 Q195.348 538.466 197.153 542.031 Q198.982 545.573 202.593 545.573 Q206.227 545.573 208.033 542.031 Q209.861 538.466 209.861 531.36 Q209.861 524.23 208.033 520.689 Q206.227 517.124 202.593 517.124 M202.593 513.42 Q208.403 513.42 211.459 518.027 Q214.537 522.61 214.537 531.36 Q214.537 540.087 211.459 544.693 Q208.403 549.276 202.593 549.276 Q196.783 549.276 193.704 544.693 Q190.649 540.087 190.649 531.36 Q190.649 522.61 193.704 518.027 Q196.783 513.42 202.593 513.42 Z" fill="#000000" fill-rule="nonzero" fill-opacity="1" /><path clip-path="url(#clip640)" d="M232.755 517.124 Q229.144 517.124 227.315 520.689 Q225.51 524.23 225.51 531.36 Q225.51 538.466 227.315 542.031 Q229.144 545.573 232.755 545.573 Q236.389 545.573 238.195 542.031 Q240.023 538.466 240.023 531.36 Q240.023 524.23 238.195 520.689 Q236.389 517.124 232.755 517.124 M232.755 513.42 Q238.565 513.42 241.621 518.027 Q244.699 522.61 244.699 531.36 Q244.699 540.087 241.621 544.693 Q238.565 549.276 232.755 549.276 Q226.945 549.276 223.866 544.693 Q220.811 540.087 220.811 531.36 Q220.811 522.61 223.866 518.027 Q226.945 513.42 232.755 513.42 Z" fill="#000000" fill-rule="nonzero" fill-opacity="1" /><path clip-path="url(#clip640)" d="M262.917 517.124 Q259.306 517.124 257.477 520.689 Q255.671 524.23 255.671 531.36 Q255.671 538.466 257.477 542.031 Q259.306 545.573 262.917 545.573 Q266.551 545.573 268.357 542.031 Q270.185 538.466 270.185 531.36 Q270.185 524.23 268.357 520.689 Q266.551 517.124 262.917 517.124 M262.917 513.42 Q268.727 513.42 271.782 518.027 Q274.861 522.61 274.861 531.36 Q274.861 540.087 271.782 544.693 Q268.727 549.276 262.917 549.276 Q257.107 549.276 254.028 544.693 Q250.972 540.087 250.972 531.36 Q250.972 522.61 254.028 518.027 Q257.107 513.42 262.917 513.42 Z" fill="#000000" fill-rule="nonzero" fill-opacity="1" /><path clip-path="url(#clip640)" d="M281.898 514.045 L304.12 514.045 L304.12 516.036 L291.574 548.605 L286.69 548.605 L298.495 517.98 L281.898 517.98 L281.898 514.045 Z" fill="#000000" fill-rule="nonzero" fill-opacity="1" /><path clip-path="url(#clip640)" d="M313.287 514.045 L331.643 514.045 L331.643 517.98 L317.569 517.98 L317.569 526.452 Q318.588 526.105 319.606 525.943 Q320.625 525.758 321.643 525.758 Q327.43 525.758 330.81 528.929 Q334.19 532.101 334.19 537.517 Q334.19 543.096 330.717 546.198 Q327.245 549.276 320.926 549.276 Q318.75 549.276 316.481 548.906 Q314.236 548.536 311.829 547.795 L311.829 543.096 Q313.912 544.23 316.134 544.786 Q318.356 545.341 320.833 545.341 Q324.838 545.341 327.176 543.235 Q329.514 541.128 329.514 537.517 Q329.514 533.906 327.176 531.8 Q324.838 529.693 320.833 529.693 Q318.958 529.693 317.083 530.11 Q315.231 530.526 313.287 531.406 L313.287 514.045 Z" fill="#000000" fill-rule="nonzero" fill-opacity="1" /><path clip-path="url(#clip640)" d="M126.205 232.1 Q122.593 232.1 120.765 235.665 Q118.959 239.207 118.959 246.336 Q118.959 253.443 120.765 257.008 Q122.593 260.549 126.205 260.549 Q129.839 260.549 131.644 257.008 Q133.473 253.443 133.473 246.336 Q133.473 239.207 131.644 235.665 Q129.839 232.1 126.205 232.1 M126.205 228.397 Q132.015 228.397 135.07 233.003 Q138.149 237.586 138.149 246.336 Q138.149 255.063 135.07 259.67 Q132.015 264.253 126.205 264.253 Q120.394 264.253 117.316 259.67 Q114.26 255.063 114.26 246.336 Q114.26 237.586 117.316 233.003 Q120.394 228.397 126.205 228.397 Z" fill="#000000" fill-rule="nonzero" fill-opacity="1" /><path clip-path="url(#clip640)" d="M146.366 257.702 L151.251 257.702 L151.251 263.582 L146.366 263.582 L146.366 257.702 Z" fill="#000000" fill-rule="nonzero" fill-opacity="1" /><path clip-path="url(#clip640)" d="M171.436 232.1 Q167.825 232.1 165.996 235.665 Q164.19 239.207 164.19 246.336 Q164.19 253.443 165.996 257.008 Q167.825 260.549 171.436 260.549 Q175.07 260.549 176.876 257.008 Q178.704 253.443 178.704 246.336 Q178.704 239.207 176.876 235.665 Q175.07 232.1 171.436 232.1 M171.436 228.397 Q177.246 228.397 180.301 233.003 Q183.38 237.586 183.38 246.336 Q183.38 255.063 180.301 259.67 Q177.246 264.253 171.436 264.253 Q165.626 264.253 162.547 259.67 Q159.491 255.063 159.491 246.336 Q159.491 237.586 162.547 233.003 Q165.626 228.397 171.436 228.397 Z" fill="#000000" fill-rule="nonzero" fill-opacity="1" /><path clip-path="url(#clip640)" d="M201.598 232.1 Q197.987 232.1 196.158 235.665 Q194.352 239.207 194.352 246.336 Q194.352 253.443 196.158 257.008 Q197.987 260.549 201.598 260.549 Q205.232 260.549 207.037 257.008 Q208.866 253.443 208.866 246.336 Q208.866 239.207 207.037 235.665 Q205.232 232.1 201.598 232.1 M201.598 228.397 Q207.408 228.397 210.463 233.003 Q213.542 237.586 213.542 246.336 Q213.542 255.063 210.463 259.67 Q207.408 264.253 201.598 264.253 Q195.787 264.253 192.709 259.67 Q189.653 255.063 189.653 246.336 Q189.653 237.586 192.709 233.003 Q195.787 228.397 201.598 228.397 Z" fill="#000000" fill-rule="nonzero" fill-opacity="1" /><path clip-path="url(#clip640)" d="M231.76 232.1 Q228.148 232.1 226.32 235.665 Q224.514 239.207 224.514 246.336 Q224.514 253.443 226.32 257.008 Q228.148 260.549 231.76 260.549 Q235.394 260.549 237.199 257.008 Q239.028 253.443 239.028 246.336 Q239.028 239.207 237.199 235.665 Q235.394 232.1 231.76 232.1 M231.76 228.397 Q237.57 228.397 240.625 233.003 Q243.704 237.586 243.704 246.336 Q243.704 255.063 240.625 259.67 Q237.57 264.253 231.76 264.253 Q225.949 264.253 222.871 259.67 Q219.815 255.063 219.815 246.336 Q219.815 237.586 222.871 233.003 Q225.949 228.397 231.76 228.397 Z" fill="#000000" fill-rule="nonzero" fill-opacity="1" /><path clip-path="url(#clip640)" d="M252.732 259.646 L260.37 259.646 L260.37 233.281 L252.06 234.947 L252.06 230.688 L260.324 229.022 L265 229.022 L265 259.646 L272.639 259.646 L272.639 263.582 L252.732 263.582 L252.732 259.646 Z" fill="#000000" fill-rule="nonzero" fill-opacity="1" /><path clip-path="url(#clip640)" d="M292.083 232.1 Q288.472 232.1 286.643 235.665 Q284.838 239.207 284.838 246.336 Q284.838 253.443 286.643 257.008 Q288.472 260.549 292.083 260.549 Q295.718 260.549 297.523 257.008 Q299.352 253.443 299.352 246.336 Q299.352 239.207 297.523 235.665 Q295.718 232.1 292.083 232.1 M292.083 228.397 Q297.893 228.397 300.949 233.003 Q304.028 237.586 304.028 246.336 Q304.028 255.063 300.949 259.67 Q297.893 264.253 292.083 264.253 Q286.273 264.253 283.194 259.67 Q280.139 255.063 280.139 246.336 Q280.139 237.586 283.194 233.003 Q286.273 228.397 292.083 228.397 Z" fill="#000000" fill-rule="nonzero" fill-opacity="1" /><path clip-path="url(#clip640)" d="M322.245 232.1 Q318.634 232.1 316.805 235.665 Q315 239.207 315 246.336 Q315 253.443 316.805 257.008 Q318.634 260.549 322.245 260.549 Q325.879 260.549 327.685 257.008 Q329.514 253.443 329.514 246.336 Q329.514 239.207 327.685 235.665 Q325.879 232.1 322.245 232.1 M322.245 228.397 Q328.055 228.397 331.111 233.003 Q334.19 237.586 334.19 246.336 Q334.19 255.063 331.111 259.67 Q328.055 264.253 322.245 264.253 Q316.435 264.253 313.356 259.67 Q310.301 255.063 310.301 246.336 Q310.301 237.586 313.356 233.003 Q316.435 228.397 322.245 228.397 Z" fill="#000000" fill-rule="nonzero" fill-opacity="1" /><path clip-path="url(#clip640)" d="M41.7242 1060.63 Q42.4244 1058.56 44.7161 1056.62 Q47.0077 1054.64 51.0181 1052.67 L64.0042 1046.14 L64.0042 1053.05 L51.8138 1059.13 Q47.0395 1061.49 45.48 1063.71 Q43.9204 1065.91 43.9204 1069.73 L43.9204 1076.73 L64.0042 1076.73 L64.0042 1083.16 L16.4842 1083.16 L16.4842 1068.65 Q16.4842 1060.5 19.8898 1056.49 Q23.2955 1052.48 30.1704 1052.48 Q34.6582 1052.48 37.6183 1054.58 Q40.5784 1056.65 41.7242 1060.63 M21.7677 1076.73 L38.6368 1076.73 L38.6368 1068.65 Q38.6368 1064 36.5043 1061.64 Q34.34 1059.26 30.1704 1059.26 Q26.0009 1059.26 23.9002 1061.64 Q21.7677 1064 21.7677 1068.65 L21.7677 1076.73 Z" fill="#000000" fill-rule="nonzero" fill-opacity="1" /><path clip-path="url(#clip640)" d="M49.9359 1041.66 L28.3562 1041.66 L28.3562 1035.8 L49.7131 1035.8 Q54.7739 1035.8 57.3202 1033.83 Q59.8346 1031.85 59.8346 1027.91 Q59.8346 1023.16 56.8109 1020.43 Q53.7872 1017.66 48.5673 1017.66 L28.3562 1017.66 L28.3562 1011.8 L64.0042 1011.8 L64.0042 1017.66 L58.5296 1017.66 Q61.7762 1019.79 63.3676 1022.62 Q64.9272 1025.42 64.9272 1029.15 Q64.9272 1035.29 61.1078 1038.47 Q57.2883 1041.66 49.9359 1041.66 M27.4968 1026.92 L27.4968 1026.92 Z" fill="#000000" fill-rule="nonzero" fill-opacity="1" /><path clip-path="url(#clip640)" d="M42.4881 970.106 L64.0042 970.106 L64.0042 975.962 L42.679 975.962 Q37.6183 975.962 35.1038 977.936 Q32.5894 979.909 32.5894 983.856 Q32.5894 988.598 35.6131 991.336 Q38.6368 994.073 43.8567 994.073 L64.0042 994.073 L64.0042 999.961 L28.3562 999.961 L28.3562 994.073 L33.8944 994.073 Q30.6797 991.972 29.0883 989.139 Q27.4968 986.275 27.4968 982.551 Q27.4968 976.408 31.3163 973.257 Q35.1038 970.106 42.4881 970.106 Z" fill="#000000" fill-rule="nonzero" fill-opacity="1" /><path clip-path="url(#clip640)" d="M32.4621 944.611 Q32.4621 949.322 36.1542 952.059 Q39.8145 954.796 46.212 954.796 Q52.6095 954.796 56.3017 952.091 Q59.9619 949.354 59.9619 944.611 Q59.9619 939.932 56.2698 937.195 Q52.5777 934.458 46.212 934.458 Q39.8781 934.458 36.186 937.195 Q32.4621 939.932 32.4621 944.611 M27.4968 944.611 Q27.4968 936.972 32.4621 932.612 Q37.4273 928.251 46.212 928.251 Q54.9649 928.251 59.9619 932.612 Q64.9272 936.972 64.9272 944.611 Q64.9272 952.282 59.9619 956.642 Q54.9649 960.971 46.212 960.971 Q37.4273 960.971 32.4621 956.642 Q27.4968 952.282 27.4968 944.611 Z" fill="#000000" fill-rule="nonzero" fill-opacity="1" /><path clip-path="url(#clip640)" d="M14.479 900.497 L19.3487 900.497 L19.3487 906.099 Q19.3487 909.25 20.6219 910.491 Q21.895 911.701 25.2052 911.701 L28.3562 911.701 L28.3562 902.056 L32.9077 902.056 L32.9077 911.701 L64.0042 911.701 L64.0042 917.589 L32.9077 917.589 L32.9077 923.191 L28.3562 923.191 L28.3562 917.589 L25.8736 917.589 Q19.9216 917.589 17.2162 914.82 Q14.479 912.051 14.479 906.035 L14.479 900.497 Z" fill="#000000" fill-rule="nonzero" fill-opacity="1" /><path clip-path="url(#clip640)" d="M14.479 877.549 L19.3487 877.549 L19.3487 883.15 Q19.3487 886.301 20.6219 887.543 Q21.895 888.752 25.2052 888.752 L28.3562 888.752 L28.3562 879.108 L32.9077 879.108 L32.9077 888.752 L64.0042 888.752 L64.0042 894.64 L32.9077 894.64 L32.9077 900.242 L28.3562 900.242 L28.3562 894.64 L25.8736 894.64 Q19.9216 894.64 17.2162 891.871 Q14.479 889.102 14.479 883.087 L14.479 877.549 Z" fill="#000000" fill-rule="nonzero" fill-opacity="1" /><path clip-path="url(#clip640)" d="M14.479 833.88 L19.3487 833.88 L19.3487 839.482 Q19.3487 842.633 20.6219 843.874 Q21.895 845.083 25.2052 845.083 L28.3562 845.083 L28.3562 835.439 L32.9077 835.439 L32.9077 845.083 L64.0042 845.083 L64.0042 850.972 L32.9077 850.972 L32.9077 856.574 L28.3562 856.574 L28.3562 850.972 L25.8736 850.972 Q19.9216 850.972 17.2162 848.203 Q14.479 845.434 14.479 839.418 L14.479 833.88 Z" fill="#000000" fill-rule="nonzero" fill-opacity="1" /><path clip-path="url(#clip640)" d="M14.479 828.978 L14.479 823.122 L64.0042 823.122 L64.0042 828.978 L14.479 828.978 Z" fill="#000000" fill-rule="nonzero" fill-opacity="1" /><path clip-path="url(#clip640)" d="M49.9359 811.472 L28.3562 811.472 L28.3562 805.616 L49.7131 805.616 Q54.7739 805.616 57.3202 803.643 Q59.8346 801.669 59.8346 797.723 Q59.8346 792.98 56.8109 790.243 Q53.7872 787.474 48.5673 787.474 L28.3562 787.474 L28.3562 781.617 L64.0042 781.617 L64.0042 787.474 L58.5296 787.474 Q61.7762 789.606 63.3676 792.439 Q64.9272 795.24 64.9272 798.964 Q64.9272 805.107 61.1078 808.29 Q57.2883 811.472 49.9359 811.472 M27.4968 796.736 L27.4968 796.736 Z" fill="#000000" fill-rule="nonzero" fill-opacity="1" /><path clip-path="url(#clip640)" d="M28.3562 739.922 L45.7028 752.812 L64.0042 739.254 L64.0042 746.16 L49.9996 756.536 L64.0042 766.913 L64.0042 773.819 L45.3526 759.974 L28.3562 772.642 L28.3562 765.735 L41.0558 756.282 L28.3562 746.829 L28.3562 739.922 Z" fill="#000000" fill-rule="nonzero" fill-opacity="1" /><path clip-path="url(#clip640)" d="M46.212 706.757 Q52.6732 706.757 56.3653 704.115 Q60.0256 701.441 60.0256 696.794 Q60.0256 692.147 56.3653 689.474 Q52.6732 686.8 46.212 686.8 Q39.7508 686.8 36.0905 689.474 Q32.3984 692.147 32.3984 696.794 Q32.3984 701.441 36.0905 704.115 Q39.7508 706.757 46.212 706.757 M58.657 686.8 Q61.8398 688.646 63.3994 691.479 Q64.9272 694.28 64.9272 698.227 Q64.9272 704.688 59.771 708.762 Q54.6147 712.804 46.212 712.804 Q37.8093 712.804 32.6531 708.762 Q27.4968 704.688 27.4968 698.227 Q27.4968 694.28 29.0564 691.479 Q30.5842 688.646 33.7671 686.8 L28.3562 686.8 L28.3562 680.944 L77.5631 680.944 L77.5631 686.8 L58.657 686.8 Z" fill="#000000" fill-rule="nonzero" fill-opacity="1" /><path clip-path="url(#clip640)" d="M14.5426 634.092 Q21.8632 638.357 29.0246 640.426 Q36.186 642.495 43.5384 642.495 Q50.8908 642.495 58.1159 640.426 Q65.3091 638.325 72.5979 634.092 L72.5979 639.185 Q65.1182 643.959 57.8931 646.346 Q50.668 648.701 43.5384 648.701 Q36.4406 648.701 29.2474 646.346 Q22.0542 643.991 14.5426 639.185 L14.5426 634.092 Z" fill="#000000" fill-rule="nonzero" fill-opacity="1" /><path clip-path="url(#clip640)" d="M35.1993 594.975 Q31.2526 592.779 29.3747 589.723 Q27.4968 586.668 27.4968 582.53 Q27.4968 576.96 31.4117 573.936 Q35.2948 570.912 42.4881 570.912 L64.0042 570.912 L64.0042 576.801 L42.679 576.801 Q37.5546 576.801 35.072 578.615 Q32.5894 580.429 32.5894 584.153 Q32.5894 588.705 35.6131 591.346 Q38.6368 593.988 43.8567 593.988 L64.0042 593.988 L64.0042 599.876 L42.679 599.876 Q37.5228 599.876 35.072 601.691 Q32.5894 603.505 32.5894 607.292 Q32.5894 611.78 35.6449 614.422 Q38.6686 617.064 43.8567 617.064 L64.0042 617.064 L64.0042 622.952 L28.3562 622.952 L28.3562 617.064 L33.8944 617.064 Q30.616 615.059 29.0564 612.258 Q27.4968 609.457 27.4968 605.606 Q27.4968 601.722 29.4702 599.017 Q31.4436 596.28 35.1993 594.975 Z" fill="#000000" fill-rule="nonzero" fill-opacity="1" /><path clip-path="url(#clip640)" d="M39.1142 556.844 L39.1142 543.349 L42.7427 543.349 L42.7427 562.382 L39.2416 562.382 Q38.2549 561.3 36.4725 559.295 Q26.7648 548.346 23.7729 548.346 Q21.6722 548.346 20.3991 550.001 Q19.0941 551.656 19.0941 554.362 Q19.0941 556.017 19.667 557.958 Q20.2081 559.9 21.3221 562.191 L17.4072 562.191 Q16.516 559.741 16.0704 557.64 Q15.6248 555.507 15.6248 553.693 Q15.6248 549.078 17.7255 546.309 Q19.8262 543.54 23.2636 543.54 Q27.6878 543.54 36.7271 554.075 Q38.2549 555.858 39.1142 556.844 Z" fill="#000000" fill-rule="nonzero" fill-opacity="1" /><path clip-path="url(#clip640)" d="M16.4842 522.692 L16.4842 517.281 L70.0516 533.832 L70.0516 539.243 L16.4842 522.692 Z" fill="#000000" fill-rule="nonzero" fill-opacity="1" /><path clip-path="url(#clip640)" d="M29.4065 488.413 L34.9447 488.413 Q33.6716 490.895 33.035 493.569 Q32.3984 496.243 32.3984 499.107 Q32.3984 503.468 33.7352 505.664 Q35.072 507.828 37.7456 507.828 Q39.7826 507.828 40.9603 506.269 Q42.1061 504.709 43.1565 499.998 L43.6021 497.993 Q44.9389 491.755 47.3897 489.145 Q49.8086 486.503 54.1691 486.503 Q59.1344 486.503 62.0308 490.45 Q64.9272 494.365 64.9272 501.24 Q64.9272 504.104 64.3543 507.224 Q63.8132 510.311 62.6992 513.748 L56.6518 513.748 Q58.3387 510.502 59.198 507.351 Q60.0256 504.2 60.0256 501.112 Q60.0256 496.975 58.6251 494.747 Q57.1929 492.519 54.6147 492.519 Q52.2276 492.519 50.9545 494.142 Q49.6813 495.733 48.5037 501.176 L48.0262 503.213 Q46.8804 508.656 44.5251 511.075 Q42.138 513.494 38.0002 513.494 Q32.9713 513.494 30.2341 509.929 Q27.4968 506.364 27.4968 499.807 Q27.4968 496.561 27.9743 493.696 Q28.4517 490.832 29.4065 488.413 Z" fill="#000000" fill-rule="nonzero" fill-opacity="1" /><path clip-path="url(#clip640)" d="M14.5426 478.1 L14.5426 473.008 Q22.0542 468.234 29.2474 465.878 Q36.4406 463.491 43.5384 463.491 Q50.668 463.491 57.8931 465.878 Q65.1182 468.234 72.5979 473.008 L72.5979 478.1 Q65.3091 473.867 58.1159 471.798 Q50.8908 469.698 43.5384 469.698 Q36.186 469.698 29.0246 471.798 Q21.8632 473.867 14.5426 478.1 Z" fill="#000000" fill-rule="nonzero" fill-opacity="1" /><path clip-path="url(#clip640)" d="M369.305 12.096 L407.546 12.096 L407.546 18.9825 L377.488 18.9825 L377.488 36.8875 L406.29 36.8875 L406.29 43.7741 L377.488 43.7741 L377.488 65.6895 L408.275 65.6895 L408.275 72.576 L369.305 72.576 L369.305 12.096 Z" fill="#000000" fill-rule="nonzero" fill-opacity="1" /><path clip-path="url(#clip640)" d="M444.368 9.54393 L444.368 15.7418 L437.239 15.7418 Q433.228 15.7418 431.648 17.3622 Q430.109 18.9825 430.109 23.1955 L430.109 27.2059 L442.383 27.2059 L442.383 32.9987 L430.109 32.9987 L430.109 72.576 L422.615 72.576 L422.615 32.9987 L415.485 32.9987 L415.485 27.2059 L422.615 27.2059 L422.615 24.0462 Q422.615 16.471 426.139 13.0277 Q429.663 9.54393 437.32 9.54393 L444.368 9.54393 Z" fill="#000000" fill-rule="nonzero" fill-opacity="1" /><path clip-path="url(#clip640)" d="M473.575 9.54393 L473.575 15.7418 L466.446 15.7418 Q462.435 15.7418 460.855 17.3622 Q459.316 18.9825 459.316 23.1955 L459.316 27.2059 L471.59 27.2059 L471.59 32.9987 L459.316 32.9987 L459.316 72.576 L451.822 72.576 L451.822 32.9987 L444.692 32.9987 L444.692 27.2059 L451.822 27.2059 L451.822 24.0462 Q451.822 16.471 455.346 13.0277 Q458.87 9.54393 466.527 9.54393 L473.575 9.54393 Z" fill="#000000" fill-rule="nonzero" fill-opacity="1" /><path clip-path="url(#clip640)" d="M518.621 48.0275 L518.621 51.6733 L484.351 51.6733 Q484.837 59.3701 488.969 63.421 Q493.141 67.4314 500.554 67.4314 Q504.848 67.4314 508.859 66.3781 Q512.91 65.3249 516.879 63.2184 L516.879 70.267 Q512.869 71.9684 508.656 72.8596 Q504.443 73.7508 500.109 73.7508 Q489.252 73.7508 482.892 67.4314 Q476.573 61.1119 476.573 50.3365 Q476.573 39.1965 482.568 32.6746 Q488.604 26.1121 498.812 26.1121 Q507.967 26.1121 513.274 32.0264 Q518.621 37.9003 518.621 48.0275 M511.168 45.84 Q511.087 39.7232 507.724 36.0774 Q504.403 32.4315 498.893 32.4315 Q492.655 32.4315 488.888 35.9558 Q485.161 39.4801 484.594 45.8805 L511.168 45.84 Z" fill="#000000" fill-rule="nonzero" fill-opacity="1" /><path clip-path="url(#clip640)" d="M563.505 28.9478 L563.505 35.9153 Q560.346 34.1734 557.145 33.3227 Q553.986 32.4315 550.745 32.4315 Q543.494 32.4315 539.483 37.0496 Q535.473 41.6271 535.473 49.9314 Q535.473 58.2358 539.483 62.8538 Q543.494 67.4314 550.745 67.4314 Q553.986 67.4314 557.145 66.5807 Q560.346 65.6895 563.505 63.9476 L563.505 70.8341 Q560.386 72.2924 557.024 73.0216 Q553.702 73.7508 549.935 73.7508 Q539.686 73.7508 533.65 67.3098 Q527.614 60.8689 527.614 49.9314 Q527.614 38.832 533.691 32.472 Q539.808 26.1121 550.421 26.1121 Q553.864 26.1121 557.145 26.8413 Q560.427 27.5299 563.505 28.9478 Z" fill="#000000" fill-rule="nonzero" fill-opacity="1" /><path clip-path="url(#clip640)" d="M583.841 14.324 L583.841 27.2059 L599.194 27.2059 L599.194 32.9987 L583.841 32.9987 L583.841 57.6282 Q583.841 63.1779 585.34 64.7578 Q586.879 66.3376 591.538 66.3376 L599.194 66.3376 L599.194 72.576 L591.538 72.576 Q582.909 72.576 579.628 69.3758 Q576.347 66.1351 576.347 57.6282 L576.347 32.9987 L570.878 32.9987 L570.878 27.2059 L576.347 27.2059 L576.347 14.324 L583.841 14.324 Z" fill="#000000" fill-rule="nonzero" fill-opacity="1" /><path clip-path="url(#clip640)" d="M652.949 32.4315 Q646.954 32.4315 643.47 37.1306 Q639.986 41.7891 639.986 49.9314 Q639.986 58.0738 643.43 62.7728 Q646.913 67.4314 652.949 67.4314 Q658.904 67.4314 662.388 62.7323 Q665.872 58.0333 665.872 49.9314 Q665.872 41.8701 662.388 37.1711 Q658.904 32.4315 652.949 32.4315 M652.949 26.1121 Q662.671 26.1121 668.221 32.4315 Q673.771 38.7509 673.771 49.9314 Q673.771 61.0714 668.221 67.4314 Q662.671 73.7508 652.949 73.7508 Q643.187 73.7508 637.637 67.4314 Q632.128 61.0714 632.128 49.9314 Q632.128 38.7509 637.637 32.4315 Q643.187 26.1121 652.949 26.1121 Z" fill="#000000" fill-rule="nonzero" fill-opacity="1" /><path clip-path="url(#clip640)" d="M709.095 9.54393 L709.095 15.7418 L701.965 15.7418 Q697.955 15.7418 696.375 17.3622 Q694.836 18.9825 694.836 23.1955 L694.836 27.2059 L707.11 27.2059 L707.11 32.9987 L694.836 32.9987 L694.836 72.576 L687.341 72.576 L687.341 32.9987 L680.212 32.9987 L680.212 27.2059 L687.341 27.2059 L687.341 24.0462 Q687.341 16.471 690.866 13.0277 Q694.39 9.54393 702.046 9.54393 L709.095 9.54393 Z" fill="#000000" fill-rule="nonzero" fill-opacity="1" /><path clip-path="url(#clip640)" d="M742.029 12.096 L754.222 12.096 L769.656 53.2532 L785.171 12.096 L797.364 12.096 L797.364 72.576 L789.384 72.576 L789.384 19.4686 L773.788 60.9499 L765.564 60.9499 L749.968 19.4686 L749.968 72.576 L742.029 72.576 L742.029 12.096 Z" fill="#000000" fill-rule="nonzero" fill-opacity="1" /><path clip-path="url(#clip640)" d="M833.903 49.7694 Q824.87 49.7694 821.386 51.8354 Q817.902 53.9013 817.902 58.8839 Q817.902 62.8538 820.495 65.2034 Q823.128 67.5124 827.624 67.5124 Q833.822 67.5124 837.549 63.1374 Q841.316 58.7219 841.316 51.4303 L841.316 49.7694 L833.903 49.7694 M848.77 46.6907 L848.77 72.576 L841.316 72.576 L841.316 65.6895 Q838.764 69.8214 834.956 71.8063 Q831.149 73.7508 825.639 73.7508 Q818.672 73.7508 814.54 69.8619 Q810.448 65.9325 810.448 59.3701 Q810.448 51.7138 815.553 47.825 Q820.697 43.9361 830.865 43.9361 L841.316 43.9361 L841.316 43.2069 Q841.316 38.0623 837.914 35.2672 Q834.551 32.4315 828.434 32.4315 Q824.546 32.4315 820.859 33.3632 Q817.173 34.295 813.77 36.1584 L813.77 29.2718 Q817.862 27.692 821.71 26.9223 Q825.558 26.1121 829.204 26.1121 Q839.048 26.1121 843.909 31.2163 Q848.77 36.3204 848.77 46.6907 Z" fill="#000000" fill-rule="nonzero" fill-opacity="1" /><path clip-path="url(#clip640)" d="M901.837 45.1919 L901.837 72.576 L894.383 72.576 L894.383 45.4349 Q894.383 38.994 891.872 35.7938 Q889.36 32.5936 884.337 32.5936 Q878.301 32.5936 874.817 36.4419 Q871.334 40.2903 871.334 46.9338 L871.334 72.576 L863.839 72.576 L863.839 27.2059 L871.334 27.2059 L871.334 34.2544 Q874.007 30.163 877.612 28.1376 Q881.258 26.1121 885.998 26.1121 Q893.816 26.1121 897.826 30.9732 Q901.837 35.7938 901.837 45.1919 Z" fill="#000000" fill-rule="nonzero" fill-opacity="1" /><path clip-path="url(#clip640)" d="M954.418 45.1919 L954.418 72.576 L946.964 72.576 L946.964 45.4349 Q946.964 38.994 944.452 35.7938 Q941.941 32.5936 936.918 32.5936 Q930.882 32.5936 927.398 36.4419 Q923.914 40.2903 923.914 46.9338 L923.914 72.576 L916.42 72.576 L916.42 27.2059 L923.914 27.2059 L923.914 34.2544 Q926.588 30.163 930.193 28.1376 Q933.839 26.1121 938.579 26.1121 Q946.397 26.1121 950.407 30.9732 Q954.418 35.7938 954.418 45.1919 Z" fill="#000000" fill-rule="nonzero" fill-opacity="1" /><path clip-path="url(#clip640)" d="M969.284 27.2059 L976.738 27.2059 L976.738 72.576 L969.284 72.576 L969.284 27.2059 M969.284 9.54393 L976.738 9.54393 L976.738 18.9825 L969.284 18.9825 L969.284 9.54393 Z" fill="#000000" fill-rule="nonzero" fill-opacity="1" /><path clip-path="url(#clip640)" d="M1030.05 45.1919 L1030.05 72.576 L1022.59 72.576 L1022.59 45.4349 Q1022.59 38.994 1020.08 35.7938 Q1017.57 32.5936 1012.55 32.5936 Q1006.51 32.5936 1003.03 36.4419 Q999.545 40.2903 999.545 46.9338 L999.545 72.576 L992.051 72.576 L992.051 27.2059 L999.545 27.2059 L999.545 34.2544 Q1002.22 30.163 1005.82 28.1376 Q1009.47 26.1121 1014.21 26.1121 Q1022.03 26.1121 1026.04 30.9732 Q1030.05 35.7938 1030.05 45.1919 Z" fill="#000000" fill-rule="nonzero" fill-opacity="1" /><path clip-path="url(#clip640)" d="M1074.77 49.3643 Q1074.77 41.2625 1071.41 36.8065 Q1068.09 32.3505 1062.05 32.3505 Q1056.05 32.3505 1052.69 36.8065 Q1049.37 41.2625 1049.37 49.3643 Q1049.37 57.4256 1052.69 61.8816 Q1056.05 66.3376 1062.05 66.3376 Q1068.09 66.3376 1071.41 61.8816 Q1074.77 57.4256 1074.77 49.3643 M1082.22 66.9452 Q1082.22 78.5308 1077.08 84.1616 Q1071.93 89.8329 1061.32 89.8329 Q1057.39 89.8329 1053.91 89.2252 Q1050.42 88.6581 1047.14 87.4428 L1047.14 80.1917 Q1050.42 81.9741 1053.62 82.8248 Q1056.82 83.6755 1060.15 83.6755 Q1067.48 83.6755 1071.12 79.8271 Q1074.77 76.0193 1074.77 68.282 L1074.77 64.5957 Q1072.46 68.6061 1068.86 70.5911 Q1065.25 72.576 1060.23 72.576 Q1051.88 72.576 1046.78 66.2161 Q1041.67 59.8562 1041.67 49.3643 Q1041.67 38.832 1046.78 32.472 Q1051.88 26.1121 1060.23 26.1121 Q1065.25 26.1121 1068.86 28.0971 Q1072.46 30.082 1074.77 34.0924 L1074.77 27.2059 L1082.22 27.2059 L1082.22 66.9452 Z" fill="#000000" fill-rule="nonzero" fill-opacity="1" /><path clip-path="url(#clip640)" d="M1104.63 12.096 L1104.63 34.5785 L1097.74 34.5785 L1097.74 12.096 L1104.63 12.096 Z" fill="#000000" fill-rule="nonzero" fill-opacity="1" /><path clip-path="url(#clip640)" d="M1149.31 28.5427 L1149.31 35.5912 Q1146.15 33.9709 1142.74 33.1607 Q1139.34 32.3505 1135.7 32.3505 Q1130.15 32.3505 1127.35 34.0519 Q1124.6 35.7533 1124.6 39.156 Q1124.6 41.7486 1126.58 43.2475 Q1128.57 44.7058 1134.56 46.0426 L1137.11 46.6097 Q1145.05 48.3111 1148.37 51.4303 Q1151.74 54.509 1151.74 60.0587 Q1151.74 66.3781 1146.71 70.0644 Q1141.73 73.7508 1132.98 73.7508 Q1129.34 73.7508 1125.37 73.0216 Q1121.44 72.3329 1117.06 70.9151 L1117.06 63.2184 Q1121.19 65.3654 1125.2 66.4591 Q1129.21 67.5124 1133.14 67.5124 Q1138.41 67.5124 1141.25 65.73 Q1144.08 63.9071 1144.08 60.6258 Q1144.08 57.5877 1142.01 55.9673 Q1139.99 54.3469 1133.06 52.8481 L1130.47 52.2405 Q1123.54 50.7821 1120.46 47.7845 Q1117.39 44.7463 1117.39 39.4801 Q1117.39 33.0797 1121.92 29.5959 Q1126.46 26.1121 1134.8 26.1121 Q1138.94 26.1121 1142.58 26.7198 Q1146.23 27.3274 1149.31 28.5427 Z" fill="#000000" fill-rule="nonzero" fill-opacity="1" /><path clip-path="url(#clip640)" d="M1218.98 44.2197 Q1221.62 45.1109 1224.09 48.0275 Q1226.6 50.9442 1229.11 56.0483 L1237.41 72.576 L1228.62 72.576 L1220.89 57.061 Q1217.89 50.9847 1215.05 48.9997 Q1212.26 47.0148 1207.4 47.0148 L1198.48 47.0148 L1198.48 72.576 L1190.3 72.576 L1190.3 12.096 L1208.77 12.096 Q1219.14 12.096 1224.25 16.4305 Q1229.35 20.7649 1229.35 29.5149 Q1229.35 35.2267 1226.68 38.994 Q1224.05 42.7613 1218.98 44.2197 M1198.48 18.8205 L1198.48 40.2903 L1208.77 40.2903 Q1214.69 40.2903 1217.69 37.5762 Q1220.72 34.8216 1220.72 29.5149 Q1220.72 24.2082 1217.69 21.5346 Q1214.69 18.8205 1208.77 18.8205 L1198.48 18.8205 Z" fill="#000000" fill-rule="nonzero" fill-opacity="1" /><path clip-path="url(#clip640)" d="M1261.48 32.4315 Q1255.48 32.4315 1252 37.1306 Q1248.51 41.7891 1248.51 49.9314 Q1248.51 58.0738 1251.96 62.7728 Q1255.44 67.4314 1261.48 67.4314 Q1267.43 67.4314 1270.91 62.7323 Q1274.4 58.0333 1274.4 49.9314 Q1274.4 41.8701 1270.91 37.1711 Q1267.43 32.4315 1261.48 32.4315 M1261.48 26.1121 Q1271.2 26.1121 1276.75 32.4315 Q1282.3 38.7509 1282.3 49.9314 Q1282.3 61.0714 1276.75 67.4314 Q1271.2 73.7508 1261.48 73.7508 Q1251.71 73.7508 1246.16 67.4314 Q1240.65 61.0714 1240.65 49.9314 Q1240.65 38.7509 1246.16 32.4315 Q1251.71 26.1121 1261.48 26.1121 Z" fill="#000000" fill-rule="nonzero" fill-opacity="1" /><path clip-path="url(#clip640)" d="M1293.88 54.671 L1293.88 27.2059 L1301.34 27.2059 L1301.34 54.3874 Q1301.34 60.8284 1303.85 64.0691 Q1306.36 67.2693 1311.38 67.2693 Q1317.42 67.2693 1320.9 63.421 Q1324.43 59.5726 1324.43 52.9291 L1324.43 27.2059 L1331.88 27.2059 L1331.88 72.576 L1324.43 72.576 L1324.43 65.6084 Q1321.71 69.7404 1318.11 71.7658 Q1314.54 73.7508 1309.8 73.7508 Q1301.99 73.7508 1297.93 68.8897 Q1293.88 64.0286 1293.88 54.671 M1312.64 26.1121 L1312.64 26.1121 Z" fill="#000000" fill-rule="nonzero" fill-opacity="1" /><path clip-path="url(#clip640)" d="M1377.09 49.3643 Q1377.09 41.2625 1373.73 36.8065 Q1370.4 32.3505 1364.37 32.3505 Q1358.37 32.3505 1355.01 36.8065 Q1351.69 41.2625 1351.69 49.3643 Q1351.69 57.4256 1355.01 61.8816 Q1358.37 66.3376 1364.37 66.3376 Q1370.4 66.3376 1373.73 61.8816 Q1377.09 57.4256 1377.09 49.3643 M1384.54 66.9452 Q1384.54 78.5308 1379.4 84.1616 Q1374.25 89.8329 1363.64 89.8329 Q1359.71 89.8329 1356.23 89.2252 Q1352.74 88.6581 1349.46 87.4428 L1349.46 80.1917 Q1352.74 81.9741 1355.94 82.8248 Q1359.14 83.6755 1362.47 83.6755 Q1369.8 83.6755 1373.44 79.8271 Q1377.09 76.0193 1377.09 68.282 L1377.09 64.5957 Q1374.78 68.6061 1371.17 70.5911 Q1367.57 72.576 1362.55 72.576 Q1354.2 72.576 1349.1 66.2161 Q1343.99 59.8562 1343.99 49.3643 Q1343.99 38.832 1349.1 32.472 Q1354.2 26.1121 1362.55 26.1121 Q1367.57 26.1121 1371.17 28.0971 Q1374.78 30.082 1377.09 34.0924 L1377.09 27.2059 L1384.54 27.2059 L1384.54 66.9452 Z" fill="#000000" fill-rule="nonzero" fill-opacity="1" /><path clip-path="url(#clip640)" d="M1437.61 45.1919 L1437.61 72.576 L1430.16 72.576 L1430.16 45.4349 Q1430.16 38.994 1427.64 35.7938 Q1425.13 32.5936 1420.11 32.5936 Q1414.07 32.5936 1410.59 36.4419 Q1407.11 40.2903 1407.11 46.9338 L1407.11 72.576 L1399.61 72.576 L1399.61 9.54393 L1407.11 9.54393 L1407.11 34.2544 Q1409.78 30.163 1413.39 28.1376 Q1417.03 26.1121 1421.77 26.1121 Q1429.59 26.1121 1433.6 30.9732 Q1437.61 35.7938 1437.61 45.1919 Z" fill="#000000" fill-rule="nonzero" fill-opacity="1" /><path clip-path="url(#clip640)" d="M1490.19 45.1919 L1490.19 72.576 L1482.74 72.576 L1482.74 45.4349 Q1482.74 38.994 1480.22 35.7938 Q1477.71 32.5936 1472.69 32.5936 Q1466.65 32.5936 1463.17 36.4419 Q1459.69 40.2903 1459.69 46.9338 L1459.69 72.576 L1452.19 72.576 L1452.19 27.2059 L1459.69 27.2059 L1459.69 34.2544 Q1462.36 30.163 1465.97 28.1376 Q1469.61 26.1121 1474.35 26.1121 Q1482.17 26.1121 1486.18 30.9732 Q1490.19 35.7938 1490.19 45.1919 Z" fill="#000000" fill-rule="nonzero" fill-opacity="1" /><path clip-path="url(#clip640)" d="M1543.86 48.0275 L1543.86 51.6733 L1509.59 51.6733 Q1510.08 59.3701 1514.21 63.421 Q1518.38 67.4314 1525.8 67.4314 Q1530.09 67.4314 1534.1 66.3781 Q1538.15 65.3249 1542.12 63.2184 L1542.12 70.267 Q1538.11 71.9684 1533.9 72.8596 Q1529.69 73.7508 1525.35 73.7508 Q1514.5 73.7508 1508.14 67.4314 Q1501.82 61.1119 1501.82 50.3365 Q1501.82 39.1965 1507.81 32.6746 Q1513.85 26.1121 1524.06 26.1121 Q1533.21 26.1121 1538.52 32.0264 Q1543.86 37.9003 1543.86 48.0275 M1536.41 45.84 Q1536.33 39.7232 1532.97 36.0774 Q1529.65 32.4315 1524.14 32.4315 Q1517.9 32.4315 1514.13 35.9558 Q1510.4 39.4801 1509.84 45.8805 L1536.41 45.84 Z" fill="#000000" fill-rule="nonzero" fill-opacity="1" /><path clip-path="url(#clip640)" d="M1585.02 28.5427 L1585.02 35.5912 Q1581.86 33.9709 1578.46 33.1607 Q1575.06 32.3505 1571.41 32.3505 Q1565.86 32.3505 1563.07 34.0519 Q1560.31 35.7533 1560.31 39.156 Q1560.31 41.7486 1562.3 43.2475 Q1564.28 44.7058 1570.28 46.0426 L1572.83 46.6097 Q1580.77 48.3111 1584.09 51.4303 Q1587.45 54.509 1587.45 60.0587 Q1587.45 66.3781 1582.43 70.0644 Q1577.45 73.7508 1568.7 73.7508 Q1565.05 73.7508 1561.08 73.0216 Q1557.15 72.3329 1552.78 70.9151 L1552.78 63.2184 Q1556.91 65.3654 1560.92 66.4591 Q1564.93 67.5124 1568.86 67.5124 Q1574.12 67.5124 1576.96 65.73 Q1579.8 63.9071 1579.8 60.6258 Q1579.8 57.5877 1577.73 55.9673 Q1575.7 54.3469 1568.78 52.8481 L1566.19 52.2405 Q1559.26 50.7821 1556.18 47.7845 Q1553.1 44.7463 1553.1 39.4801 Q1553.1 33.0797 1557.64 29.5959 Q1562.17 26.1121 1570.52 26.1121 Q1574.65 26.1121 1578.3 26.7198 Q1581.94 27.3274 1585.02 28.5427 Z" fill="#000000" fill-rule="nonzero" fill-opacity="1" /><path clip-path="url(#clip640)" d="M1628.25 28.5427 L1628.25 35.5912 Q1625.09 33.9709 1621.68 33.1607 Q1618.28 32.3505 1614.63 32.3505 Q1609.08 32.3505 1606.29 34.0519 Q1603.53 35.7533 1603.53 39.156 Q1603.53 41.7486 1605.52 43.2475 Q1607.5 44.7058 1613.5 46.0426 L1616.05 46.6097 Q1623.99 48.3111 1627.31 51.4303 Q1630.68 54.509 1630.68 60.0587 Q1630.68 66.3781 1625.65 70.0644 Q1620.67 73.7508 1611.92 73.7508 Q1608.27 73.7508 1604.3 73.0216 Q1600.37 72.3329 1596 70.9151 L1596 63.2184 Q1600.13 65.3654 1604.14 66.4591 Q1608.15 67.5124 1612.08 67.5124 Q1617.35 67.5124 1620.18 65.73 Q1623.02 63.9071 1623.02 60.6258 Q1623.02 57.5877 1620.95 55.9673 Q1618.93 54.3469 1612 52.8481 L1609.41 52.2405 Q1602.48 50.7821 1599.4 47.7845 Q1596.32 44.7463 1596.32 39.4801 Q1596.32 33.0797 1600.86 29.5959 Q1605.4 26.1121 1613.74 26.1121 Q1617.87 26.1121 1621.52 26.7198 Q1625.17 27.3274 1628.25 28.5427 Z" fill="#000000" fill-rule="nonzero" fill-opacity="1" /><path clip-path="url(#clip640)" d="M1686.5 32.4315 Q1680.5 32.4315 1677.02 37.1306 Q1673.53 41.7891 1673.53 49.9314 Q1673.53 58.0738 1676.98 62.7728 Q1680.46 67.4314 1686.5 67.4314 Q1692.45 67.4314 1695.94 62.7323 Q1699.42 58.0333 1699.42 49.9314 Q1699.42 41.8701 1695.94 37.1711 Q1692.45 32.4315 1686.5 32.4315 M1686.5 26.1121 Q1696.22 26.1121 1701.77 32.4315 Q1707.32 38.7509 1707.32 49.9314 Q1707.32 61.0714 1701.77 67.4314 Q1696.22 73.7508 1686.5 73.7508 Q1676.73 73.7508 1671.18 67.4314 Q1665.68 61.0714 1665.68 49.9314 Q1665.68 38.7509 1671.18 32.4315 Q1676.73 26.1121 1686.5 26.1121 Z" fill="#000000" fill-rule="nonzero" fill-opacity="1" /><path clip-path="url(#clip640)" d="M1757.39 45.1919 L1757.39 72.576 L1749.93 72.576 L1749.93 45.4349 Q1749.93 38.994 1747.42 35.7938 Q1744.91 32.5936 1739.89 32.5936 Q1733.85 32.5936 1730.37 36.4419 Q1726.88 40.2903 1726.88 46.9338 L1726.88 72.576 L1719.39 72.576 L1719.39 27.2059 L1726.88 27.2059 L1726.88 34.2544 Q1729.56 30.163 1733.16 28.1376 Q1736.81 26.1121 1741.55 26.1121 Q1749.37 26.1121 1753.38 30.9732 Q1757.39 35.7938 1757.39 45.1919 Z" fill="#000000" fill-rule="nonzero" fill-opacity="1" /><path clip-path="url(#clip640)" d="M1827.63 44.2197 Q1830.26 45.1109 1832.73 48.0275 Q1835.25 50.9442 1837.76 56.0483 L1846.06 72.576 L1837.27 72.576 L1829.53 57.061 Q1826.54 50.9847 1823.7 48.9997 Q1820.91 47.0148 1816.04 47.0148 L1807.13 47.0148 L1807.13 72.576 L1798.95 72.576 L1798.95 12.096 L1817.42 12.096 Q1827.79 12.096 1832.9 16.4305 Q1838 20.7649 1838 29.5149 Q1838 35.2267 1835.33 38.994 Q1832.69 42.7613 1827.63 44.2197 M1807.13 18.8205 L1807.13 40.2903 L1817.42 40.2903 Q1823.34 40.2903 1826.33 37.5762 Q1829.37 34.8216 1829.37 29.5149 Q1829.37 24.2082 1826.33 21.5346 Q1823.34 18.8205 1817.42 18.8205 L1807.13 18.8205 Z" fill="#000000" fill-rule="nonzero" fill-opacity="1" /><path clip-path="url(#clip640)" d="M1851.77 54.671 L1851.77 27.2059 L1859.23 27.2059 L1859.23 54.3874 Q1859.23 60.8284 1861.74 64.0691 Q1864.25 67.2693 1869.27 67.2693 Q1875.31 67.2693 1878.79 63.421 Q1882.32 59.5726 1882.32 52.9291 L1882.32 27.2059 L1889.77 27.2059 L1889.77 72.576 L1882.32 72.576 L1882.32 65.6084 Q1879.6 69.7404 1876 71.7658 Q1872.43 73.7508 1867.69 73.7508 Q1859.88 73.7508 1855.82 68.8897 Q1851.77 64.0286 1851.77 54.671 M1870.53 26.1121 L1870.53 26.1121 Z" fill="#000000" fill-rule="nonzero" fill-opacity="1" /><path clip-path="url(#clip640)" d="M1942.84 45.1919 L1942.84 72.576 L1935.38 72.576 L1935.38 45.4349 Q1935.38 38.994 1932.87 35.7938 Q1930.36 32.5936 1925.34 32.5936 Q1919.3 32.5936 1915.82 36.4419 Q1912.33 40.2903 1912.33 46.9338 L1912.33 72.576 L1904.84 72.576 L1904.84 27.2059 L1912.33 27.2059 L1912.33 34.2544 Q1915.01 30.163 1918.61 28.1376 Q1922.26 26.1121 1927 26.1121 Q1934.82 26.1121 1938.83 30.9732 Q1942.84 35.7938 1942.84 45.1919 Z" fill="#000000" fill-rule="nonzero" fill-opacity="1" /><path clip-path="url(#clip640)" d="M1975.29 32.4315 Q1969.29 32.4315 1965.81 37.1306 Q1962.32 41.7891 1962.32 49.9314 Q1962.32 58.0738 1965.77 62.7728 Q1969.25 67.4314 1975.29 67.4314 Q1981.24 67.4314 1984.72 62.7323 Q1988.21 58.0333 1988.21 49.9314 Q1988.21 41.8701 1984.72 37.1711 Q1981.24 32.4315 1975.29 32.4315 M1975.29 26.1121 Q1985.01 26.1121 1990.56 32.4315 Q1996.11 38.7509 1996.11 49.9314 Q1996.11 61.0714 1990.56 67.4314 Q1985.01 73.7508 1975.29 73.7508 Q1965.52 73.7508 1959.97 67.4314 Q1954.46 61.0714 1954.46 49.9314 Q1954.46 38.7509 1959.97 32.4315 Q1965.52 26.1121 1975.29 26.1121 Z" fill="#000000" fill-rule="nonzero" fill-opacity="1" /><path clip-path="url(#clip640)" d="M2031.43 9.54393 L2031.43 15.7418 L2024.3 15.7418 Q2020.29 15.7418 2018.71 17.3622 Q2017.17 18.9825 2017.17 23.1955 L2017.17 27.2059 L2029.45 27.2059 L2029.45 32.9987 L2017.17 32.9987 L2017.17 72.576 L2009.68 72.576 L2009.68 32.9987 L2002.55 32.9987 L2002.55 27.2059 L2009.68 27.2059 L2009.68 24.0462 Q2009.68 16.471 2013.2 13.0277 Q2016.73 9.54393 2024.38 9.54393 L2031.43 9.54393 Z" fill="#000000" fill-rule="nonzero" fill-opacity="1" /><path clip-path="url(#clip640)" d="M2060.64 9.54393 L2060.64 15.7418 L2053.51 15.7418 Q2049.5 15.7418 2047.92 17.3622 Q2046.38 18.9825 2046.38 23.1955 L2046.38 27.2059 L2058.65 27.2059 L2058.65 32.9987 L2046.38 32.9987 L2046.38 72.576 L2038.89 72.576 L2038.89 32.9987 L2031.76 32.9987 L2031.76 27.2059 L2038.89 27.2059 L2038.89 24.0462 Q2038.89 16.471 2042.41 13.0277 Q2045.93 9.54393 2053.59 9.54393 L2060.64 9.54393 Z" fill="#000000" fill-rule="nonzero" fill-opacity="1" /><path clip-path="url(#clip640)" d="M2111.15 9.62495 Q2105.73 18.942 2103.09 28.0566 Q2100.46 37.1711 2100.46 46.5287 Q2100.46 55.8863 2103.09 65.0818 Q2105.77 74.2369 2111.15 83.5134 L2104.67 83.5134 Q2098.6 73.9938 2095.56 64.7983 Q2092.56 55.6027 2092.56 46.5287 Q2092.56 37.4952 2095.56 28.3401 Q2098.55 19.1851 2104.67 9.62495 L2111.15 9.62495 Z" fill="#000000" fill-rule="nonzero" fill-opacity="1" /><path clip-path="url(#clip640)" d="M2125.94 12.096 L2164.18 12.096 L2164.18 18.9825 L2134.12 18.9825 L2134.12 36.8875 L2162.92 36.8875 L2162.92 43.7741 L2134.12 43.7741 L2134.12 65.6895 L2164.91 65.6895 L2164.91 72.576 L2125.94 72.576 L2125.94 12.096 Z" fill="#000000" fill-rule="nonzero" fill-opacity="1" /><path clip-path="url(#clip640)" d="M2182.49 49.9314 Q2182.49 58.1548 2185.85 62.8538 Q2189.25 67.5124 2195.17 67.5124 Q2201.08 67.5124 2204.49 62.8538 Q2207.89 58.1548 2207.89 49.9314 Q2207.89 41.7081 2204.49 37.0496 Q2201.08 32.3505 2195.17 32.3505 Q2189.25 32.3505 2185.85 37.0496 Q2182.49 41.7081 2182.49 49.9314 M2207.89 65.7705 Q2205.54 69.8214 2201.93 71.8063 Q2198.37 73.7508 2193.35 73.7508 Q2185.12 73.7508 2179.94 67.1883 Q2174.79 60.6258 2174.79 49.9314 Q2174.79 39.2371 2179.94 32.6746 Q2185.12 26.1121 2193.35 26.1121 Q2198.37 26.1121 2201.93 28.0971 Q2205.54 30.0415 2207.89 34.0924 L2207.89 27.2059 L2215.34 27.2059 L2215.34 89.8329 L2207.89 89.8329 L2207.89 65.7705 Z" fill="#000000" fill-rule="nonzero" fill-opacity="1" /><path clip-path="url(#clip640)" d="M2231.75 62.2867 L2240.3 62.2867 L2240.3 72.576 L2231.75 72.576 L2231.75 62.2867 Z" fill="#000000" fill-rule="nonzero" fill-opacity="1" /><path clip-path="url(#clip640)" d="M2285.91 65.6895 L2299.28 65.6895 L2299.28 19.5497 L2284.73 22.4663 L2284.73 15.0127 L2299.2 12.096 L2307.38 12.096 L2307.38 65.6895 L2320.75 65.6895 L2320.75 72.576 L2285.91 72.576 L2285.91 65.6895 Z" fill="#000000" fill-rule="nonzero" fill-opacity="1" /><path clip-path="url(#clip640)" d="M2335.05 9.62495 L2341.53 9.62495 Q2347.6 19.1851 2350.6 28.3401 Q2353.64 37.4952 2353.64 46.5287 Q2353.64 55.6027 2350.6 64.7983 Q2347.6 73.9938 2341.53 83.5134 L2335.05 83.5134 Q2340.43 74.2369 2343.07 65.0818 Q2345.74 55.8863 2345.74 46.5287 Q2345.74 37.1711 2343.07 28.0566 Q2340.43 18.942 2335.05 9.62495 Z" fill="#000000" fill-rule="nonzero" fill-opacity="1" /><polyline clip-path="url(#clip641)" style="stroke:#009af9; stroke-linecap:round; stroke-linejoin:round; stroke-width:8; stroke-opacity:1; fill:none" points="426.3,1386.4 490.069,1197.33 625.647,837.507 797.131,524.483 1029.3,320.482 1239.37,247.892 1528.22,207.596 1850.09,184.781 2285.07,160.873 2296.65,160.256 "/>
<polyline clip-path="url(#clip641)" style="stroke:#e26f46; stroke-linecap:round; stroke-linejoin:round; stroke-width:8; stroke-opacity:1; fill:none" points="426.3,1386.4 490.069,1210.08 561.319,1086.54 662.683,1022.02 745.902,1007.21 875.669,1000.66 1014.92,997.574 1219.73,994.013 1475.06,989.709 1772.34,985.332 2060.89,985.093 2296.65,992.137 "/>
<polyline clip-path="url(#clip641)" style="stroke:#3da44d; stroke-linecap:round; stroke-linejoin:round; stroke-width:8; stroke-opacity:1; fill:none" points="426.3,1386.4 472.75,1291.17 509.16,1275.68 546.74,1272.49 598.67,1271.78 662.061,1271.42 741.136,1271.34 824.744,1273.69 899.405,1307.29 945.216,1281.75 994.575,1276.95 1044.18,1272.95 1097.84,1271.2 1156.42,1270.62 1219.17,1271 1283.14,1273.22 1344.31,1279.5 1399.7,1287.16 1449.6,1282.28 1498.07,1275.13 1548.01,1270.84 1601.44,1268.79 1659.72,1268.03 1722.42,1268.21 1786.98,1269.93 1849.48,1275.14 1906.64,1283.22 1957.96,1281.08 2006.92,1273.57 2056.92,1268.74 2110.1,1266.34 2168.05,1265.39 2230.74,1265.37 2295.95,1266.68 2296.65,1266.55 "/>
<path clip-path="url(#clip640)" d="M436.275 374.156 L1139.81 374.156 L1139.81 166.796 L436.275 166.796  Z" fill="#ffffff" fill-rule="evenodd" fill-opacity="1"/>
<polyline clip-path="url(#clip640)" style="stroke:#000000; stroke-linecap:round; stroke-linejoin:round; stroke-width:4; stroke-opacity:1; fill:none" points="436.275,374.156 1139.81,374.156 1139.81,166.796 436.275,166.796 436.275,374.156 "/>
<polyline clip-path="url(#clip640)" style="stroke:#009af9; stroke-linecap:round; stroke-linejoin:round; stroke-width:8; stroke-opacity:1; fill:none" points="458.304,218.636 590.475,218.636 "/>
<path clip-path="url(#clip640)" d="M634.216 220.268 L634.216 235.916 L629.957 235.916 L629.957 220.407 Q629.957 216.726 628.522 214.897 Q627.086 213.069 624.216 213.069 Q620.767 213.069 618.776 215.268 Q616.786 217.467 616.786 221.263 L616.786 235.916 L612.503 235.916 L612.503 209.99 L616.786 209.99 L616.786 214.018 Q618.313 211.68 620.374 210.522 Q622.457 209.365 625.165 209.365 Q629.633 209.365 631.924 212.143 Q634.216 214.897 634.216 220.268 Z" fill="#000000" fill-rule="nonzero" fill-opacity="1" /><path clip-path="url(#clip640)" d="M643.267 214.388 L672.943 214.388 L672.943 218.277 L643.267 218.277 L643.267 214.388 M643.267 223.832 L672.943 223.832 L672.943 227.768 L643.267 227.768 L643.267 223.832 Z" fill="#000000" fill-rule="nonzero" fill-opacity="1" /><path clip-path="url(#clip640)" d="M693.035 204.434 Q689.424 204.434 687.595 207.999 Q685.79 211.541 685.79 218.67 Q685.79 225.777 687.595 229.342 Q689.424 232.883 693.035 232.883 Q696.669 232.883 698.475 229.342 Q700.304 225.777 700.304 218.67 Q700.304 211.541 698.475 207.999 Q696.669 204.434 693.035 204.434 M693.035 200.731 Q698.845 200.731 701.901 205.337 Q704.98 209.92 704.98 218.67 Q704.98 227.397 701.901 232.004 Q698.845 236.587 693.035 236.587 Q687.225 236.587 684.146 232.004 Q681.091 227.397 681.091 218.67 Q681.091 209.92 684.146 205.337 Q687.225 200.731 693.035 200.731 Z" fill="#000000" fill-rule="nonzero" fill-opacity="1" /><path clip-path="url(#clip640)" d="M713.197 230.036 L718.081 230.036 L718.081 235.916 L713.197 235.916 L713.197 230.036 Z" fill="#000000" fill-rule="nonzero" fill-opacity="1" /><path clip-path="url(#clip640)" d="M738.266 204.434 Q734.655 204.434 732.827 207.999 Q731.021 211.541 731.021 218.67 Q731.021 225.777 732.827 229.342 Q734.655 232.883 738.266 232.883 Q741.901 232.883 743.706 229.342 Q745.535 225.777 745.535 218.67 Q745.535 211.541 743.706 207.999 Q741.901 204.434 738.266 204.434 M738.266 200.731 Q744.077 200.731 747.132 205.337 Q750.211 209.92 750.211 218.67 Q750.211 227.397 747.132 232.004 Q744.077 236.587 738.266 236.587 Q732.456 236.587 729.378 232.004 Q726.322 227.397 726.322 218.67 Q726.322 209.92 729.378 205.337 Q732.456 200.731 738.266 200.731 Z" fill="#000000" fill-rule="nonzero" fill-opacity="1" /><path clip-path="url(#clip640)" d="M759.239 231.981 L766.877 231.981 L766.877 205.615 L758.567 207.282 L758.567 203.022 L766.831 201.356 L771.507 201.356 L771.507 231.981 L779.146 231.981 L779.146 235.916 L759.239 235.916 L759.239 231.981 Z" fill="#000000" fill-rule="nonzero" fill-opacity="1" /><path clip-path="url(#clip640)" d="M813.289 199.944 Q810.187 205.268 808.683 210.476 Q807.178 215.684 807.178 221.032 Q807.178 226.379 808.683 231.633 Q810.21 236.865 813.289 242.166 L809.585 242.166 Q806.113 236.726 804.377 231.471 Q802.664 226.217 802.664 221.032 Q802.664 215.87 804.377 210.638 Q806.09 205.407 809.585 199.944 L813.289 199.944 Z" fill="#000000" fill-rule="nonzero" fill-opacity="1" /><path clip-path="url(#clip640)" d="M838.081 210.754 L838.081 214.782 Q836.275 213.856 834.331 213.393 Q832.386 212.93 830.303 212.93 Q827.132 212.93 825.534 213.902 Q823.96 214.874 823.96 216.819 Q823.96 218.3 825.095 219.157 Q826.229 219.99 829.655 220.754 L831.113 221.078 Q835.65 222.05 837.548 223.832 Q839.47 225.592 839.47 228.763 Q839.47 232.374 836.599 234.481 Q833.752 236.587 828.752 236.587 Q826.669 236.587 824.4 236.17 Q822.155 235.777 819.655 234.967 L819.655 230.569 Q822.016 231.795 824.308 232.42 Q826.599 233.022 828.845 233.022 Q831.854 233.022 833.474 232.004 Q835.095 230.962 835.095 229.087 Q835.095 227.351 833.914 226.425 Q832.757 225.499 828.798 224.643 L827.317 224.295 Q823.359 223.462 821.599 221.749 Q819.84 220.013 819.84 217.004 Q819.84 213.346 822.433 211.356 Q825.025 209.365 829.794 209.365 Q832.155 209.365 834.238 209.712 Q836.321 210.059 838.081 210.754 Z" fill="#000000" fill-rule="nonzero" fill-opacity="1" /><path clip-path="url(#clip640)" d="M866.437 214.967 Q868.034 212.096 870.256 210.731 Q872.479 209.365 875.488 209.365 Q879.539 209.365 881.738 212.212 Q883.937 215.036 883.937 220.268 L883.937 235.916 L879.655 235.916 L879.655 220.407 Q879.655 216.68 878.335 214.874 Q877.016 213.069 874.307 213.069 Q870.997 213.069 869.076 215.268 Q867.155 217.467 867.155 221.263 L867.155 235.916 L862.872 235.916 L862.872 220.407 Q862.872 216.657 861.553 214.874 Q860.233 213.069 857.479 213.069 Q854.215 213.069 852.294 215.291 Q850.372 217.49 850.372 221.263 L850.372 235.916 L846.09 235.916 L846.09 209.99 L850.372 209.99 L850.372 214.018 Q851.831 211.633 853.868 210.499 Q855.905 209.365 858.706 209.365 Q861.53 209.365 863.497 210.8 Q865.488 212.235 866.437 214.967 Z" fill="#000000" fill-rule="nonzero" fill-opacity="1" /><path clip-path="url(#clip640)" d="M902.479 212.976 Q899.053 212.976 897.062 215.661 Q895.071 218.323 895.071 222.976 Q895.071 227.629 897.039 230.314 Q899.029 232.976 902.479 232.976 Q905.881 232.976 907.872 230.291 Q909.863 227.606 909.863 222.976 Q909.863 218.37 907.872 215.684 Q905.881 212.976 902.479 212.976 M902.479 209.365 Q908.034 209.365 911.205 212.976 Q914.377 216.587 914.377 222.976 Q914.377 229.342 911.205 232.976 Q908.034 236.587 902.479 236.587 Q896.9 236.587 893.729 232.976 Q890.58 229.342 890.58 222.976 Q890.58 216.587 893.729 212.976 Q896.9 209.365 902.479 209.365 Z" fill="#000000" fill-rule="nonzero" fill-opacity="1" /><path clip-path="url(#clip640)" d="M931.483 212.976 Q928.057 212.976 926.066 215.661 Q924.076 218.323 924.076 222.976 Q924.076 227.629 926.043 230.314 Q928.034 232.976 931.483 232.976 Q934.886 232.976 936.876 230.291 Q938.867 227.606 938.867 222.976 Q938.867 218.37 936.876 215.684 Q934.886 212.976 931.483 212.976 M931.483 209.365 Q937.039 209.365 940.21 212.976 Q943.381 216.587 943.381 222.976 Q943.381 229.342 940.21 232.976 Q937.039 236.587 931.483 236.587 Q925.904 236.587 922.733 232.976 Q919.585 229.342 919.585 222.976 Q919.585 216.587 922.733 212.976 Q925.904 209.365 931.483 209.365 Z" fill="#000000" fill-rule="nonzero" fill-opacity="1" /><path clip-path="url(#clip640)" d="M954.654 202.629 L954.654 209.99 L963.427 209.99 L963.427 213.3 L954.654 213.3 L954.654 227.374 Q954.654 230.545 955.511 231.448 Q956.39 232.351 959.052 232.351 L963.427 232.351 L963.427 235.916 L959.052 235.916 Q954.122 235.916 952.247 234.087 Q950.372 232.235 950.372 227.374 L950.372 213.3 L947.247 213.3 L947.247 209.99 L950.372 209.99 L950.372 202.629 L954.654 202.629 Z" fill="#000000" fill-rule="nonzero" fill-opacity="1" /><path clip-path="url(#clip640)" d="M990.58 220.268 L990.58 235.916 L986.321 235.916 L986.321 220.407 Q986.321 216.726 984.885 214.897 Q983.45 213.069 980.58 213.069 Q977.131 213.069 975.14 215.268 Q973.149 217.467 973.149 221.263 L973.149 235.916 L968.867 235.916 L968.867 199.897 L973.149 199.897 L973.149 214.018 Q974.677 211.68 976.737 210.522 Q978.821 209.365 981.529 209.365 Q985.997 209.365 988.288 212.143 Q990.58 214.897 990.58 220.268 Z" fill="#000000" fill-rule="nonzero" fill-opacity="1" /><path clip-path="url(#clip640)" d="M998.404 199.944 L1002.11 199.944 Q1005.58 205.407 1007.29 210.638 Q1009.03 215.87 1009.03 221.032 Q1009.03 226.217 1007.29 231.471 Q1005.58 236.726 1002.11 242.166 L998.404 242.166 Q1001.48 236.865 1002.99 231.633 Q1004.51 226.379 1004.51 221.032 Q1004.51 215.684 1002.99 210.476 Q1001.48 205.268 998.404 199.944 Z" fill="#000000" fill-rule="nonzero" fill-opacity="1" /><polyline clip-path="url(#clip640)" style="stroke:#e26f46; stroke-linecap:round; stroke-linejoin:round; stroke-width:8; stroke-opacity:1; fill:none" points="458.304,270.476 590.475,270.476 "/>
<path clip-path="url(#clip640)" d="M634.216 272.108 L634.216 287.756 L629.957 287.756 L629.957 272.247 Q629.957 268.566 628.522 266.737 Q627.086 264.909 624.216 264.909 Q620.767 264.909 618.776 267.108 Q616.786 269.307 616.786 273.103 L616.786 287.756 L612.503 287.756 L612.503 261.83 L616.786 261.83 L616.786 265.858 Q618.313 263.52 620.374 262.362 Q622.457 261.205 625.165 261.205 Q629.633 261.205 631.924 263.983 Q634.216 266.737 634.216 272.108 Z" fill="#000000" fill-rule="nonzero" fill-opacity="1" /><path clip-path="url(#clip640)" d="M643.267 266.228 L672.943 266.228 L672.943 270.117 L643.267 270.117 L643.267 266.228 M643.267 275.672 L672.943 275.672 L672.943 279.608 L643.267 279.608 L643.267 275.672 Z" fill="#000000" fill-rule="nonzero" fill-opacity="1" /><path clip-path="url(#clip640)" d="M693.035 256.274 Q689.424 256.274 687.595 259.839 Q685.79 263.381 685.79 270.51 Q685.79 277.617 687.595 281.182 Q689.424 284.723 693.035 284.723 Q696.669 284.723 698.475 281.182 Q700.304 277.617 700.304 270.51 Q700.304 263.381 698.475 259.839 Q696.669 256.274 693.035 256.274 M693.035 252.571 Q698.845 252.571 701.901 257.177 Q704.98 261.76 704.98 270.51 Q704.98 279.237 701.901 283.844 Q698.845 288.427 693.035 288.427 Q687.225 288.427 684.146 283.844 Q681.091 279.237 681.091 270.51 Q681.091 261.76 684.146 257.177 Q687.225 252.571 693.035 252.571 Z" fill="#000000" fill-rule="nonzero" fill-opacity="1" /><path clip-path="url(#clip640)" d="M713.197 281.876 L718.081 281.876 L718.081 287.756 L713.197 287.756 L713.197 281.876 Z" fill="#000000" fill-rule="nonzero" fill-opacity="1" /><path clip-path="url(#clip640)" d="M738.266 256.274 Q734.655 256.274 732.827 259.839 Q731.021 263.381 731.021 270.51 Q731.021 277.617 732.827 281.182 Q734.655 284.723 738.266 284.723 Q741.901 284.723 743.706 281.182 Q745.535 277.617 745.535 270.51 Q745.535 263.381 743.706 259.839 Q741.901 256.274 738.266 256.274 M738.266 252.571 Q744.077 252.571 747.132 257.177 Q750.211 261.76 750.211 270.51 Q750.211 279.237 747.132 283.844 Q744.077 288.427 738.266 288.427 Q732.456 288.427 729.378 283.844 Q726.322 279.237 726.322 270.51 Q726.322 261.76 729.378 257.177 Q732.456 252.571 738.266 252.571 Z" fill="#000000" fill-rule="nonzero" fill-opacity="1" /><path clip-path="url(#clip640)" d="M772.595 269.122 Q775.951 269.839 777.826 272.108 Q779.725 274.376 779.725 277.709 Q779.725 282.825 776.206 285.626 Q772.688 288.427 766.206 288.427 Q764.03 288.427 761.715 287.987 Q759.424 287.571 756.97 286.714 L756.97 282.2 Q758.914 283.334 761.229 283.913 Q763.544 284.492 766.067 284.492 Q770.465 284.492 772.757 282.756 Q775.072 281.02 775.072 277.709 Q775.072 274.654 772.919 272.941 Q770.789 271.205 766.97 271.205 L762.942 271.205 L762.942 267.362 L767.155 267.362 Q770.604 267.362 772.433 265.997 Q774.262 264.608 774.262 262.015 Q774.262 259.353 772.363 257.941 Q770.488 256.506 766.97 256.506 Q765.049 256.506 762.85 256.923 Q760.651 257.339 758.012 258.219 L758.012 254.052 Q760.674 253.311 762.989 252.941 Q765.326 252.571 767.387 252.571 Q772.711 252.571 775.813 255.001 Q778.914 257.409 778.914 261.529 Q778.914 264.399 777.271 266.39 Q775.627 268.358 772.595 269.122 Z" fill="#000000" fill-rule="nonzero" fill-opacity="1" /><path clip-path="url(#clip640)" d="M813.289 251.784 Q810.187 257.108 808.683 262.316 Q807.178 267.524 807.178 272.872 Q807.178 278.219 808.683 283.473 Q810.21 288.705 813.289 294.006 L809.585 294.006 Q806.113 288.566 804.377 283.311 Q802.664 278.057 802.664 272.872 Q802.664 267.71 804.377 262.478 Q806.09 257.247 809.585 251.784 L813.289 251.784 Z" fill="#000000" fill-rule="nonzero" fill-opacity="1" /><path clip-path="url(#clip640)" d="M840.164 274.816 Q840.164 270.117 838.22 267.455 Q836.298 264.77 832.919 264.77 Q829.539 264.77 827.595 267.455 Q825.673 270.117 825.673 274.816 Q825.673 279.515 827.595 282.2 Q829.539 284.862 832.919 284.862 Q836.298 284.862 838.22 282.2 Q840.164 279.515 840.164 274.816 M825.673 265.765 Q827.016 263.45 829.053 262.339 Q831.113 261.205 833.96 261.205 Q838.683 261.205 841.622 264.955 Q844.585 268.705 844.585 274.816 Q844.585 280.927 841.622 284.677 Q838.683 288.427 833.96 288.427 Q831.113 288.427 829.053 287.316 Q827.016 286.182 825.673 283.867 L825.673 287.756 L821.391 287.756 L821.391 251.737 L825.673 251.737 L825.673 265.765 Z" fill="#000000" fill-rule="nonzero" fill-opacity="1" /><path clip-path="url(#clip640)" d="M863.428 274.723 Q858.266 274.723 856.275 275.904 Q854.284 277.084 854.284 279.932 Q854.284 282.2 855.766 283.543 Q857.27 284.862 859.84 284.862 Q863.381 284.862 865.511 282.362 Q867.664 279.839 867.664 275.672 L867.664 274.723 L863.428 274.723 M871.923 272.964 L871.923 287.756 L867.664 287.756 L867.664 283.821 Q866.206 286.182 864.03 287.316 Q861.854 288.427 858.706 288.427 Q854.724 288.427 852.363 286.205 Q850.025 283.959 850.025 280.209 Q850.025 275.834 852.942 273.612 Q855.882 271.39 861.692 271.39 L867.664 271.39 L867.664 270.973 Q867.664 268.034 865.719 266.436 Q863.798 264.816 860.303 264.816 Q858.081 264.816 855.974 265.348 Q853.868 265.881 851.923 266.946 L851.923 263.01 Q854.261 262.108 856.46 261.668 Q858.659 261.205 860.743 261.205 Q866.368 261.205 869.145 264.122 Q871.923 267.038 871.923 272.964 Z" fill="#000000" fill-rule="nonzero" fill-opacity="1" /><path clip-path="url(#clip640)" d="M895.719 265.811 Q895.002 265.395 894.145 265.21 Q893.312 265.001 892.293 265.001 Q888.682 265.001 886.738 267.362 Q884.817 269.7 884.817 274.098 L884.817 287.756 L880.534 287.756 L880.534 261.83 L884.817 261.83 L884.817 265.858 Q886.159 263.497 888.312 262.362 Q890.465 261.205 893.543 261.205 Q893.983 261.205 894.516 261.274 Q895.048 261.321 895.696 261.436 L895.719 265.811 Z" fill="#000000" fill-rule="nonzero" fill-opacity="1" /><path clip-path="url(#clip640)" d="M921.321 273.728 L921.321 275.811 L901.738 275.811 Q902.016 280.209 904.377 282.524 Q906.761 284.816 910.997 284.816 Q913.451 284.816 915.742 284.214 Q918.057 283.612 920.326 282.409 L920.326 286.436 Q918.034 287.408 915.627 287.918 Q913.219 288.427 910.742 288.427 Q904.539 288.427 900.904 284.816 Q897.293 281.205 897.293 275.047 Q897.293 268.682 900.719 264.955 Q904.168 261.205 910.002 261.205 Q915.233 261.205 918.265 264.585 Q921.321 267.941 921.321 273.728 M917.062 272.478 Q917.015 268.983 915.094 266.899 Q913.196 264.816 910.048 264.816 Q906.483 264.816 904.33 266.83 Q902.201 268.844 901.877 272.501 L917.062 272.478 Z" fill="#000000" fill-rule="nonzero" fill-opacity="1" /><path clip-path="url(#clip640)" d="M959.909 262.594 L959.909 266.622 Q958.103 265.696 956.159 265.233 Q954.214 264.77 952.131 264.77 Q948.96 264.77 947.363 265.742 Q945.788 266.714 945.788 268.659 Q945.788 270.14 946.923 270.997 Q948.057 271.83 951.483 272.594 L952.941 272.918 Q957.478 273.89 959.376 275.672 Q961.298 277.432 961.298 280.603 Q961.298 284.214 958.427 286.321 Q955.58 288.427 950.58 288.427 Q948.497 288.427 946.228 288.01 Q943.983 287.617 941.483 286.807 L941.483 282.409 Q943.844 283.635 946.136 284.26 Q948.427 284.862 950.673 284.862 Q953.682 284.862 955.302 283.844 Q956.923 282.802 956.923 280.927 Q956.923 279.191 955.742 278.265 Q954.585 277.339 950.626 276.483 L949.145 276.135 Q945.187 275.302 943.427 273.589 Q941.668 271.853 941.668 268.844 Q941.668 265.186 944.261 263.196 Q946.853 261.205 951.622 261.205 Q953.983 261.205 956.066 261.552 Q958.149 261.899 959.909 262.594 Z" fill="#000000" fill-rule="nonzero" fill-opacity="1" /><path clip-path="url(#clip640)" d="M978.126 264.816 Q974.7 264.816 972.71 267.501 Q970.719 270.163 970.719 274.816 Q970.719 279.469 972.686 282.154 Q974.677 284.816 978.126 284.816 Q981.529 284.816 983.52 282.131 Q985.51 279.446 985.51 274.816 Q985.51 270.21 983.52 267.524 Q981.529 264.816 978.126 264.816 M978.126 261.205 Q983.682 261.205 986.853 264.816 Q990.024 268.427 990.024 274.816 Q990.024 281.182 986.853 284.816 Q983.682 288.427 978.126 288.427 Q972.548 288.427 969.376 284.816 Q966.228 281.182 966.228 274.816 Q966.228 268.427 969.376 264.816 Q972.548 261.205 978.126 261.205 Z" fill="#000000" fill-rule="nonzero" fill-opacity="1" /><path clip-path="url(#clip640)" d="M997.084 261.83 L1001.34 261.83 L1001.34 287.756 L997.084 287.756 L997.084 261.83 M997.084 251.737 L1001.34 251.737 L1001.34 257.131 L997.084 257.131 L997.084 251.737 Z" fill="#000000" fill-rule="nonzero" fill-opacity="1" /><path clip-path="url(#clip640)" d="M1010.26 251.737 L1014.51 251.737 L1014.51 287.756 L1010.26 287.756 L1010.26 251.737 Z" fill="#000000" fill-rule="nonzero" fill-opacity="1" /><path clip-path="url(#clip640)" d="M1022.76 251.784 L1026.46 251.784 Q1029.93 257.247 1031.64 262.478 Q1033.38 267.71 1033.38 272.872 Q1033.38 278.057 1031.64 283.311 Q1029.93 288.566 1026.46 294.006 L1022.76 294.006 Q1025.83 288.705 1027.34 283.473 Q1028.87 278.219 1028.87 272.872 Q1028.87 267.524 1027.34 262.316 Q1025.83 257.108 1022.76 251.784 Z" fill="#000000" fill-rule="nonzero" fill-opacity="1" /><polyline clip-path="url(#clip640)" style="stroke:#3da44d; stroke-linecap:round; stroke-linejoin:round; stroke-width:8; stroke-opacity:1; fill:none" points="458.304,322.316 590.475,322.316 "/>
<path clip-path="url(#clip640)" d="M634.216 323.948 L634.216 339.596 L629.957 339.596 L629.957 324.087 Q629.957 320.406 628.522 318.577 Q627.086 316.749 624.216 316.749 Q620.767 316.749 618.776 318.948 Q616.786 321.147 616.786 324.943 L616.786 339.596 L612.503 339.596 L612.503 313.67 L616.786 313.67 L616.786 317.698 Q618.313 315.36 620.374 314.202 Q622.457 313.045 625.165 313.045 Q629.633 313.045 631.924 315.823 Q634.216 318.577 634.216 323.948 Z" fill="#000000" fill-rule="nonzero" fill-opacity="1" /><path clip-path="url(#clip640)" d="M643.267 318.068 L672.943 318.068 L672.943 321.957 L643.267 321.957 L643.267 318.068 M643.267 327.512 L672.943 327.512 L672.943 331.448 L643.267 331.448 L643.267 327.512 Z" fill="#000000" fill-rule="nonzero" fill-opacity="1" /><path clip-path="url(#clip640)" d="M693.035 308.114 Q689.424 308.114 687.595 311.679 Q685.79 315.221 685.79 322.35 Q685.79 329.457 687.595 333.022 Q689.424 336.563 693.035 336.563 Q696.669 336.563 698.475 333.022 Q700.304 329.457 700.304 322.35 Q700.304 315.221 698.475 311.679 Q696.669 308.114 693.035 308.114 M693.035 304.411 Q698.845 304.411 701.901 309.017 Q704.98 313.6 704.98 322.35 Q704.98 331.077 701.901 335.684 Q698.845 340.267 693.035 340.267 Q687.225 340.267 684.146 335.684 Q681.091 331.077 681.091 322.35 Q681.091 313.6 684.146 309.017 Q687.225 304.411 693.035 304.411 Z" fill="#000000" fill-rule="nonzero" fill-opacity="1" /><path clip-path="url(#clip640)" d="M713.197 333.716 L718.081 333.716 L718.081 339.596 L713.197 339.596 L713.197 333.716 Z" fill="#000000" fill-rule="nonzero" fill-opacity="1" /><path clip-path="url(#clip640)" d="M729.077 335.661 L736.715 335.661 L736.715 309.295 L728.405 310.962 L728.405 306.702 L736.669 305.036 L741.345 305.036 L741.345 335.661 L748.984 335.661 L748.984 339.596 L729.077 339.596 L729.077 335.661 Z" fill="#000000" fill-rule="nonzero" fill-opacity="1" /><path clip-path="url(#clip640)" d="M768.428 308.114 Q764.817 308.114 762.989 311.679 Q761.183 315.221 761.183 322.35 Q761.183 329.457 762.989 333.022 Q764.817 336.563 768.428 336.563 Q772.063 336.563 773.868 333.022 Q775.697 329.457 775.697 322.35 Q775.697 315.221 773.868 311.679 Q772.063 308.114 768.428 308.114 M768.428 304.411 Q774.238 304.411 777.294 309.017 Q780.373 313.6 780.373 322.35 Q780.373 331.077 777.294 335.684 Q774.238 340.267 768.428 340.267 Q762.618 340.267 759.539 335.684 Q756.484 331.077 756.484 322.35 Q756.484 313.6 759.539 309.017 Q762.618 304.411 768.428 304.411 Z" fill="#000000" fill-rule="nonzero" fill-opacity="1" /><path clip-path="url(#clip640)" d="M813.289 303.624 Q810.187 308.948 808.683 314.156 Q807.178 319.364 807.178 324.712 Q807.178 330.059 808.683 335.313 Q810.21 340.545 813.289 345.846 L809.585 345.846 Q806.113 340.406 804.377 335.151 Q802.664 329.897 802.664 324.712 Q802.664 319.55 804.377 314.318 Q806.09 309.087 809.585 303.624 L813.289 303.624 Z" fill="#000000" fill-rule="nonzero" fill-opacity="1" /><path clip-path="url(#clip640)" d="M838.613 317.605 L838.613 303.577 L842.872 303.577 L842.872 339.596 L838.613 339.596 L838.613 335.707 Q837.271 338.022 835.21 339.156 Q833.173 340.267 830.303 340.267 Q825.604 340.267 822.641 336.517 Q819.701 332.767 819.701 326.656 Q819.701 320.545 822.641 316.795 Q825.604 313.045 830.303 313.045 Q833.173 313.045 835.21 314.179 Q837.271 315.29 838.613 317.605 M824.099 326.656 Q824.099 331.355 826.021 334.04 Q827.965 336.702 831.345 336.702 Q834.724 336.702 836.669 334.04 Q838.613 331.355 838.613 326.656 Q838.613 321.957 836.669 319.295 Q834.724 316.61 831.345 316.61 Q827.965 316.61 826.021 319.295 Q824.099 321.957 824.099 326.656 Z" fill="#000000" fill-rule="nonzero" fill-opacity="1" /><path clip-path="url(#clip640)" d="M873.821 325.568 L873.821 327.651 L854.238 327.651 Q854.516 332.049 856.877 334.364 Q859.261 336.656 863.497 336.656 Q865.951 336.656 868.243 336.054 Q870.557 335.452 872.826 334.249 L872.826 338.276 Q870.534 339.248 868.127 339.758 Q865.719 340.267 863.243 340.267 Q857.039 340.267 853.405 336.656 Q849.794 333.045 849.794 326.887 Q849.794 320.522 853.22 316.795 Q856.669 313.045 862.502 313.045 Q867.733 313.045 870.766 316.425 Q873.821 319.781 873.821 325.568 M869.562 324.318 Q869.516 320.823 867.594 318.739 Q865.696 316.656 862.548 316.656 Q858.983 316.656 856.831 318.67 Q854.701 320.684 854.377 324.341 L869.562 324.318 Z" fill="#000000" fill-rule="nonzero" fill-opacity="1" /><path clip-path="url(#clip640)" d="M902.363 323.948 L902.363 339.596 L898.104 339.596 L898.104 324.087 Q898.104 320.406 896.668 318.577 Q895.233 316.749 892.363 316.749 Q888.914 316.749 886.923 318.948 Q884.932 321.147 884.932 324.943 L884.932 339.596 L880.65 339.596 L880.65 313.67 L884.932 313.67 L884.932 317.698 Q886.46 315.36 888.52 314.202 Q890.604 313.045 893.312 313.045 Q897.779 313.045 900.071 315.823 Q902.363 318.577 902.363 323.948 Z" fill="#000000" fill-rule="nonzero" fill-opacity="1" /><path clip-path="url(#clip640)" d="M927.386 314.434 L927.386 318.462 Q925.58 317.536 923.636 317.073 Q921.691 316.61 919.608 316.61 Q916.437 316.61 914.84 317.582 Q913.265 318.554 913.265 320.499 Q913.265 321.98 914.4 322.837 Q915.534 323.67 918.96 324.434 L920.418 324.758 Q924.955 325.73 926.853 327.512 Q928.775 329.272 928.775 332.443 Q928.775 336.054 925.904 338.161 Q923.057 340.267 918.057 340.267 Q915.974 340.267 913.705 339.85 Q911.46 339.457 908.96 338.647 L908.96 334.249 Q911.321 335.475 913.613 336.1 Q915.904 336.702 918.15 336.702 Q921.159 336.702 922.779 335.684 Q924.4 334.642 924.4 332.767 Q924.4 331.031 923.219 330.105 Q922.062 329.179 918.103 328.323 L916.622 327.975 Q912.664 327.142 910.904 325.429 Q909.145 323.693 909.145 320.684 Q909.145 317.026 911.738 315.036 Q914.33 313.045 919.099 313.045 Q921.46 313.045 923.543 313.392 Q925.627 313.739 927.386 314.434 Z" fill="#000000" fill-rule="nonzero" fill-opacity="1" /><path clip-path="url(#clip640)" d="M957.733 325.568 L957.733 327.651 L938.15 327.651 Q938.427 332.049 940.788 334.364 Q943.173 336.656 947.409 336.656 Q949.863 336.656 952.154 336.054 Q954.469 335.452 956.737 334.249 L956.737 338.276 Q954.446 339.248 952.038 339.758 Q949.631 340.267 947.154 340.267 Q940.951 340.267 937.316 336.656 Q933.705 333.045 933.705 326.887 Q933.705 320.522 937.131 316.795 Q940.58 313.045 946.413 313.045 Q951.645 313.045 954.677 316.425 Q957.733 319.781 957.733 325.568 M953.474 324.318 Q953.427 320.823 951.506 318.739 Q949.608 316.656 946.46 316.656 Q942.895 316.656 940.742 318.67 Q938.613 320.684 938.288 324.341 L953.474 324.318 Z" fill="#000000" fill-rule="nonzero" fill-opacity="1" /><path clip-path="url(#clip640)" d="M996.853 326.332 Q996.853 321.702 994.932 319.156 Q993.034 316.61 989.585 316.61 Q986.159 316.61 984.237 319.156 Q982.339 321.702 982.339 326.332 Q982.339 330.938 984.237 333.485 Q986.159 336.031 989.585 336.031 Q993.034 336.031 994.932 333.485 Q996.853 330.938 996.853 326.332 M1001.11 336.378 Q1001.11 342.998 998.172 346.216 Q995.233 349.457 989.168 349.457 Q986.922 349.457 984.932 349.11 Q982.941 348.785 981.066 348.091 L981.066 343.948 Q982.941 344.966 984.77 345.452 Q986.598 345.938 988.497 345.938 Q992.686 345.938 994.77 343.739 Q996.853 341.563 996.853 337.142 L996.853 335.036 Q995.534 337.327 993.473 338.461 Q991.413 339.596 988.543 339.596 Q983.774 339.596 980.858 335.961 Q977.941 332.327 977.941 326.332 Q977.941 320.313 980.858 316.679 Q983.774 313.045 988.543 313.045 Q991.413 313.045 993.473 314.179 Q995.534 315.313 996.853 317.605 L996.853 313.67 L1001.11 313.67 L1001.11 336.378 Z" fill="#000000" fill-rule="nonzero" fill-opacity="1" /><path clip-path="url(#clip640)" d="M1024.91 317.651 Q1024.19 317.235 1023.33 317.05 Q1022.5 316.841 1021.48 316.841 Q1017.87 316.841 1015.93 319.202 Q1014.01 321.54 1014.01 325.938 L1014.01 339.596 L1009.72 339.596 L1009.72 313.67 L1014.01 313.67 L1014.01 317.698 Q1015.35 315.337 1017.5 314.202 Q1019.65 313.045 1022.73 313.045 Q1023.17 313.045 1023.7 313.114 Q1024.24 313.161 1024.89 313.276 L1024.91 317.651 Z" fill="#000000" fill-rule="nonzero" fill-opacity="1" /><path clip-path="url(#clip640)" d="M1041.16 326.563 Q1036 326.563 1034.01 327.744 Q1032.01 328.924 1032.01 331.772 Q1032.01 334.04 1033.5 335.383 Q1035 336.702 1037.57 336.702 Q1041.11 336.702 1043.24 334.202 Q1045.39 331.679 1045.39 327.512 L1045.39 326.563 L1041.16 326.563 M1049.65 324.804 L1049.65 339.596 L1045.39 339.596 L1045.39 335.661 Q1043.94 338.022 1041.76 339.156 Q1039.58 340.267 1036.44 340.267 Q1032.45 340.267 1030.09 338.045 Q1027.76 335.799 1027.76 332.049 Q1027.76 327.674 1030.67 325.452 Q1033.61 323.23 1039.42 323.23 L1045.39 323.23 L1045.39 322.813 Q1045.39 319.874 1043.45 318.276 Q1041.53 316.656 1038.03 316.656 Q1035.81 316.656 1033.7 317.188 Q1031.6 317.721 1029.65 318.786 L1029.65 314.85 Q1031.99 313.948 1034.19 313.508 Q1036.39 313.045 1038.47 313.045 Q1044.1 313.045 1046.88 315.962 Q1049.65 318.878 1049.65 324.804 Z" fill="#000000" fill-rule="nonzero" fill-opacity="1" /><path clip-path="url(#clip640)" d="M1074.95 314.434 L1074.95 318.462 Q1073.15 317.536 1071.2 317.073 Q1069.26 316.61 1067.18 316.61 Q1064.01 316.61 1062.41 317.582 Q1060.83 318.554 1060.83 320.499 Q1060.83 321.98 1061.97 322.837 Q1063.1 323.67 1066.53 324.434 L1067.99 324.758 Q1072.52 325.73 1074.42 327.512 Q1076.34 329.272 1076.34 332.443 Q1076.34 336.054 1073.47 338.161 Q1070.63 340.267 1065.63 340.267 Q1063.54 340.267 1061.27 339.85 Q1059.03 339.457 1056.53 338.647 L1056.53 334.249 Q1058.89 335.475 1061.18 336.1 Q1063.47 336.702 1065.72 336.702 Q1068.73 336.702 1070.35 335.684 Q1071.97 334.642 1071.97 332.767 Q1071.97 331.031 1070.79 330.105 Q1069.63 329.179 1065.67 328.323 L1064.19 327.975 Q1060.23 327.142 1058.47 325.429 Q1056.71 323.693 1056.71 320.684 Q1056.71 317.026 1059.31 315.036 Q1061.9 313.045 1066.67 313.045 Q1069.03 313.045 1071.11 313.392 Q1073.2 313.739 1074.95 314.434 Z" fill="#000000" fill-rule="nonzero" fill-opacity="1" /><path clip-path="url(#clip640)" d="M1099.65 314.434 L1099.65 318.462 Q1097.85 317.536 1095.9 317.073 Q1093.96 316.61 1091.88 316.61 Q1088.7 316.61 1087.11 317.582 Q1085.53 318.554 1085.53 320.499 Q1085.53 321.98 1086.67 322.837 Q1087.8 323.67 1091.23 324.434 L1092.69 324.758 Q1097.22 325.73 1099.12 327.512 Q1101.04 329.272 1101.04 332.443 Q1101.04 336.054 1098.17 338.161 Q1095.32 340.267 1090.32 340.267 Q1088.24 340.267 1085.97 339.85 Q1083.73 339.457 1081.23 338.647 L1081.23 334.249 Q1083.59 335.475 1085.88 336.1 Q1088.17 336.702 1090.42 336.702 Q1093.43 336.702 1095.05 335.684 Q1096.67 334.642 1096.67 332.767 Q1096.67 331.031 1095.49 330.105 Q1094.33 329.179 1090.37 328.323 L1088.89 327.975 Q1084.93 327.142 1083.17 325.429 Q1081.41 323.693 1081.41 320.684 Q1081.41 317.026 1084.01 315.036 Q1086.6 313.045 1091.37 313.045 Q1093.73 313.045 1095.81 313.392 Q1097.89 313.739 1099.65 314.434 Z" fill="#000000" fill-rule="nonzero" fill-opacity="1" /><path clip-path="url(#clip640)" d="M1107.15 303.624 L1110.86 303.624 Q1114.33 309.087 1116.04 314.318 Q1117.78 319.55 1117.78 324.712 Q1117.78 329.897 1116.04 335.151 Q1114.33 340.406 1110.86 345.846 L1107.15 345.846 Q1110.23 340.545 1111.74 335.313 Q1113.26 330.059 1113.26 324.712 Q1113.26 319.364 1111.74 314.156 Q1110.23 308.948 1107.15 303.624 Z" fill="#000000" fill-rule="nonzero" fill-opacity="1" /></svg>
